{
  "accessors": [
    {
      "bufferView": 2,
      "componentType": 5126,
      "count": 10239,
      "max": [
        0.18703970313072205,
        0.12384965270757675,
        0.10568773001432419
      ],
      "min": [
        -0.12746411561965942,
        -0.2091543972492218,
        -0.14029327034950256
      ],
      "type": "VEC3"
    },
    {
      "bufferView": 2,
      "byteOffset": 122868,
      "componentType": 5126,
      "count": 10239,
      "max": [
        1.0,
        1.0,
        1.0
      ],
      "min": [
        -1.0,
        -1.0,
        -1.0
      ],
      "type": "VEC3"
    },
    {
      "bufferView": 1,
      "componentType": 5126,
      "count": 10239,
      "max": [
        1.0092625617980957,
        1.0702943801879883
      ],
      "min": [
        0.0,
        0.0
      ],
      "type": "VEC2"
    },
    {
      "bufferView": 0,
      "componentType": 5125,
      "count": 25947,
      "type": "SCALAR"
    }
  ],
  "asset": {
    "extras": {
      "author": "Bayomy (https://sketchfab.com/Bayomy)",
      "license": "CC-BY-4.0 (http://creativecommons.org/licenses/by/4.0/)",
      "source": "https://sketchfab.com/3d-models/casted-hard-surface-industrial-part-4-b9f9726a425d45e3888c88ec84c829d5",
      "title": "Casted Hard Surface Industrial Part 4"
    },
    "generator": "Sketchfab-15.68.0",
    "version": "2.0"
  },
  "bufferViews": [
    {
      "buffer": 0,
      "byteLength": 103788,
      "name": "floatBufferViews",
      "target": 34963
    },
    {
      "buffer": 0,
      "byteLength": 81912,
      "byteOffset": 103788,
      "byteStride": 8,
      "name": "floatBufferViews",
      "target": 34962
    },
    {
      "buffer": 0,
      "byteLength": 245736,
      "byteOffset": 185700,
      "byteStride": 12,
      "name": "floatBufferViews",
      "target": 34962
    }
  ],
  "buffers": [
    {
      "byteLength": 431436,
      "uri": "scene.bin"
    }
  ],
  "materials": [
    {
      "doubleSided": true,
      "name": "Steel_Scratched.No_Rust",
      "pbrMetallicRoughness": {
        "baseColorFactor": [
          0.232308,
          0.232308,
          0.232308,
          1.0
        ],
        "metallicFactor": 0.0,
        "roughnessFactor": 0.9480543520282979
      }
    }
  ],
  "meshes": [
    {
      "name": "133_Steel Scratched.No Rust_0",
      "primitives": [
        {
          "attributes": {
            "NORMAL": 1,
            "POSITION": 0,
            "TEXCOORD_0": 2
          },
          "indices": 3,
          "material": 0,
          "mode": 4
        }
      ]
    }
  ],
  "nodes": [
    {
      "children": [
        1
      ],
      "matrix": [
        1.0,
        0.0,
        0.0,
        0.0,
        0.0,
        2.220446049250313e-16,
        -1.0,
        0.0,
        0.0,
        1.0,
        2.220446049250313e-16,
        0.0,
        0.0,
        0.0,
        0.0,
        1.0
      ],
      "name": "Sketchfab_model"
    },
    {
      "children": [
        2
      ],
      "matrix": [
        0.009999999776482582,
        0.0,
        0.0,
        0.0,
        0.0,
        0.0,
        0.009999999776482582,
        0.0,
        0.0,
        -0.009999999776482582,
        0.0,
        0.0,
        0.0,
        0.0,
        0.0,
        1.0
      ],
      "name": "133.fbx"
    },
    {
      "children": [
        3,
        5,
        8,
        11,
        14
      ],
      "name": "RootNode"
    },
    {
      "children": [
        4
      ],
      "matrix": [
        180.39248657226563,
        0.0,
        0.0,
        0.0,
        0.0,
        5.6628174188779185e-05,
        180.39248657225673,
        0.0,
        0.0,
        -180.39248657225673,
        5.6628174188779185e-05,
        0.0,
        53.35387420654297,
        11.132859230041504,
        46.37721633911133,
        1.0
      ],
      "name": "133"
    },
    {
      "mesh": 0,
      "name": "133_Steel Scratched.No Rust_0"
    },
    {
      "children": [
        6
      ],
      "matrix": [
        81.74589739921848,
        48.20965093262705,
        31.518848572730224,
        0.0,
        -57.5986827835186,
        68.42068867046518,
        44.73255082669529,
        0.0,
        -6.647653338909265e-06,
        -54.72146670926805,
        83.69922987212263,
        0.0,
        -75.86785888671875,
        76.78453063964844,
        156.3019561767578,
        1.0
      ],
      "name": "Area.001"
    },
    {
      "children": [
        7
      ],
      "matrix": [
        1.0,
        0.0,
        0.0,
        0.0,
        0.0,
        2.220446049250313e-16,
        1.0,
        0.0,
        0.0,
        -1.0,
        2.220446049250313e-16,
        0.0,
        0.0,
        0.0,
        0.0,
        1.0
      ],
      "name": "Object_6"
    },
    {
      "name": "Object_7"
    },
    {
      "children": [
        9
      ],
      "matrix": [
        78.08993139582097,
        -47.68427445568755,
        40.35062061766386,
        0.0,
        62.465691500181244,
        59.61129717398682,
        -50.44334083542462,
        0.0,
        1.2720638190022449e-05,
        64.59646444558166,
        76.33673284291478,
        0.0,
        212.2113037109375,
        -47.322505950927734,
        -11.254404067993164,
        1.0
      ],
      "name": "Area"
    },
    {
      "children": [
        10
      ],
      "matrix": [
        1.0,
        0.0,
        0.0,
        0.0,
        0.0,
        2.220446049250313e-16,
        1.0,
        0.0,
        0.0,
        -1.0,
        2.220446049250313e-16,
        0.0,
        0.0,
        0.0,
        0.0,
        1.0
      ],
      "name": "Object_9"
    },
    {
      "name": "Object_10"
    },
    {
      "children": [
        12
      ],
      "matrix": [
        -1.981362120118033,
        48.209653043096864,
        87.58941193712938,
        0.0,
        -61.591580362695055,
        68.42069766016812,
        -39.05236082492972,
        0.0,
        -78.75628837403146,
        -54.72146755194939,
        28.337423248882587,
        0.0,
        -229.3724822998047,
        158.56410217285156,
        -110.55967712402344,
        1.0
      ],
      "name": "Area.002"
    },
    {
      "children": [
        13
      ],
      "matrix": [
        1.0,
        0.0,
        0.0,
        0.0,
        0.0,
        2.220446049250313e-16,
        1.0,
        0.0,
        0.0,
        -1.0,
        2.220446049250313e-16,
        0.0,
        0.0,
        0.0,
        0.0,
        1.0
      ],
      "name": "Object_12"
    },
    {
      "name": "Object_13"
    },
    {
      "children": [
        15
      ],
      "matrix": [
        -11.810300223896167,
        -5.2765478395225465,
        10.368356632449835,
        0.0,
        -3.96529109206909,
        15.715788578248173,
        3.4811526335339065,
        0.0,
        -10.937149670530895,
        -5.6983454144060175e-06,
        -12.458199100326333,
        0.0,
        307.5946960449219,
        121.69723510742188,
        -174.5436248779297,
        1.0
      ],
      "name": "Camera"
    },
    {
      "name": "Object_15"
    }
  ],
  "scene": 0,
  "scenes": [
    {
      "name": "Sketchfab_Scene",
      "nodes": [
        0
      ]
    }
  ]
}
