{
  "accessors": [
    {
      "bufferView": 2,
      "componentType": 5126,
      "count": 10527,
      "max": [
        0.17812231183052063,
        0.12943099439144135,
        0.09053243696689606
      ],
      "min": [
        -0.15488168597221375,
        -0.12957213819026947,
        -0.11297003924846649
      ],
      "type": "VEC3"
    },
    {
      "bufferView": 2,
      "byteOffset": 126324,
      "componentType": 5126,
      "count": 10527,
      "max": [
        1.0,
        1.0,
        1.0
      ],
      "min": [
        -1.0,
        -1.0,
        -1.0
      ],
      "type": "VEC3"
    },
    {
      "bufferView": 1,
      "componentType": 5126,
      "count": 10527,
      "max": [
        1.0064113140106201,
        1.0001370906829834
      ],
      "min": [
        -0.09938263893127441,
        -0.001382972113788128
      ],
      "type": "VEC2"
    },
    {
      "bufferView": 0,
      "componentType": 5125,
      "count": 39474,
      "type": "SCALAR"
    }
  ],
  "asset": {
    "extras": {
      "author": "Bayomy (https://sketchfab.com/Bayomy)",
      "license": "CC-BY-4.0 (http://creativecommons.org/licenses/by/4.0/)",
      "source": "https://sketchfab.com/3d-models/casted-hard-surface-industrial-part-edb8b23859e84e87bc7beb365f0f12e0",
      "title": "Casted Hard Surface Industrial Part"
    },
    "generator": "Sketchfab-15.68.0",
    "version": "2.0"
  },
  "bufferViews": [
    {
      "buffer": 0,
      "byteLength": 157896,
      "name": "floatBufferViews",
      "target": 34963
    },
    {
      "buffer": 0,
      "byteLength": 84216,
      "byteOffset": 157896,
      "byteStride": 8,
      "name": "floatBufferViews",
      "target": 34962
    },
    {
      "buffer": 0,
      "byteLength": 252648,
      "byteOffset": 242112,
      "byteStride": 12,
      "name": "floatBufferViews",
      "target": 34962
    }
  ],
  "buffers": [
    {
      "byteLength": 494760,
      "uri": "scene.bin"
    }
  ],
  "materials": [
    {
      "doubleSided": true,
      "name": "Steel_Scratched.No_Rust",
      "pbrMetallicRoughness": {
        "baseColorFactor": [
          0.232308,
          0.232308,
          0.232308,
          1.0
        ],
        "metallicFactor": 0.0,
        "roughnessFactor": 0.9480543520282979
      }
    }
  ],
  "meshes": [
    {
      "name": "122_Steel Scratched.No Rust_0",
      "primitives": [
        {
          "attributes": {
            "NORMAL": 1,
            "POSITION": 0,
            "TEXCOORD_0": 2
          },
          "indices": 3,
          "material": 0,
          "mode": 4
        }
      ]
    }
  ],
  "nodes": [
    {
      "children": [
        1
      ],
      "matrix": [
        1.0,
        0.0,
        0.0,
        0.0,
        0.0,
        2.220446049250313e-16,
        -1.0,
        0.0,
        0.0,
        1.0,
        2.220446049250313e-16,
        0.0,
        0.0,
        0.0,
        0.0,
        1.0
      ],
      "name": "Sketchfab_model"
    },
    {
      "children": [
        2
      ],
      "matrix": [
        0.009999999776482582,
        0.0,
        0.0,
        0.0,
        0.0,
        0.0,
        0.009999999776482582,
        0.0,
        0.0,
        -0.009999999776482582,
        0.0,
        0.0,
        0.0,
        0.0,
        0.0,
        1.0
      ],
      "name": "122.fbx"
    },
    {
      "children": [
        3,
        5,
        8,
        11,
        14,
        17
      ],
      "name": "RootNode"
    },
    {
      "children": [
        4
      ],
      "matrix": [
        100.0,
        0.0,
        0.0,
        0.0,
        0.0,
        3.139164788112936e-05,
        99.99999999999507,
        0.0,
        0.0,
        -99.99999999999507,
        3.139164788112936e-05,
        0.0,
        63.152278900146484,
        9.573484420776367,
        39.369537353515625,
        1.0
      ],
      "name": "122"
    },
    {
      "mesh": 0,
      "name": "122_Steel Scratched.No Rust_0"
    },
    {
      "children": [
        6
      ],
      "matrix": [
        81.74589739921848,
        48.20965093262705,
        31.518848572730224,
        0.0,
        -57.5986827835186,
        68.42068867046518,
        44.73255082669529,
        0.0,
        -6.647653338909265e-06,
        -54.72146670926805,
        83.69922987212263,
        0.0,
        -75.86785888671875,
        163.61260986328125,
        156.3019561767578,
        1.0
      ],
      "name": "Area.001"
    },
    {
      "children": [
        7
      ],
      "matrix": [
        1.0,
        0.0,
        0.0,
        0.0,
        0.0,
        2.220446049250313e-16,
        1.0,
        0.0,
        0.0,
        -1.0,
        2.220446049250313e-16,
        0.0,
        0.0,
        0.0,
        0.0,
        1.0
      ],
      "name": "Object_6"
    },
    {
      "name": "Object_7"
    },
    {
      "children": [
        9
      ],
      "matrix": [
        78.08993139582097,
        -47.68427445568755,
        40.35062061766386,
        0.0,
        62.465691500181244,
        59.61129717398682,
        -50.44334083542462,
        0.0,
        1.2720638190022449e-05,
        64.59646444558166,
        76.33673284291478,
        0.0,
        212.2113037109375,
        163.61260986328125,
        -11.254404067993164,
        1.0
      ],
      "name": "Area"
    },
    {
      "children": [
        10
      ],
      "matrix": [
        1.0,
        0.0,
        0.0,
        0.0,
        0.0,
        2.220446049250313e-16,
        1.0,
        0.0,
        0.0,
        -1.0,
        2.220446049250313e-16,
        0.0,
        0.0,
        0.0,
        0.0,
        1.0
      ],
      "name": "Object_9"
    },
    {
      "name": "Object_10"
    },
    {
      "children": [
        12
      ],
      "matrix": [
        -1.981362120118033,
        48.209653043096864,
        87.58941193712938,
        0.0,
        -61.591580362695055,
        68.42069766016812,
        -39.05236082492972,
        0.0,
        -78.75628837403146,
        -54.72146755194939,
        28.337423248882587,
        0.0,
        -229.3724822998047,
        158.56410217285156,
        -110.55967712402344,
        1.0
      ],
      "name": "Area.002"
    },
    {
      "children": [
        13
      ],
      "matrix": [
        1.0,
        0.0,
        0.0,
        0.0,
        0.0,
        2.220446049250313e-16,
        1.0,
        0.0,
        0.0,
        -1.0,
        2.220446049250313e-16,
        0.0,
        0.0,
        0.0,
        0.0,
        1.0
      ],
      "name": "Object_12"
    },
    {
      "name": "Object_13"
    },
    {
      "children": [
        15
      ],
      "matrix": [
        -83.15177692177785,
        48.20965326354854,
        -27.597334161804064,
        0.0,
        55.407158858536626,
        68.42069952877293,
        -47.41999735446242,
        0.0,
        -3.9787266102653347,
        -54.72146084641493,
        -83.60461385231703,
        0.0,
        164.3216552734375,
        158.56410217285156,
        -110.55967712402344,
        1.0
      ],
      "name": "Area.003"
    },
    {
      "children": [
        16
      ],
      "matrix": [
        1.0,
        0.0,
        0.0,
        0.0,
        0.0,
        2.220446049250313e-16,
        1.0,
        0.0,
        0.0,
        -1.0,
        2.220446049250313e-16,
        0.0,
        0.0,
        0.0,
        0.0,
        1.0
      ],
      "name": "Object_15"
    },
    {
      "name": "Object_16"
    },
    {
      "children": [
        18
      ],
      "matrix": [
        -8.016008330480094,
        -7.659770634608581,
        12.324751194643243,
        0.0,
        -4.176298145569344,
        14.702240698752737,
        6.421107379124798,
        0.0,
        -13.897126033248243,
        -1.1178521777271084e-05,
        -9.038686616698648,
        0.0,
        148.3384552001953,
        87.09446716308594,
        -87.90715026855469,
        1.0
      ],
      "name": "Camera"
    },
    {
      "name": "Object_18"
    }
  ],
  "scene": 0,
  "scenes": [
    {
      "name": "Sketchfab_Scene",
      "nodes": [
        0
      ]
    }
  ]
}
