<svg xmlns="http://www.w3.org/2000/svg" xmlns:xlink="http://www.w3.org/1999/xlink" width="250" zoomAndPan="magnify" viewBox="0 0 187.5 187.499992" height="250" preserveAspectRatio="xMidYMid meet" version="1.0"><metadata><manifest xmlns:c2pa="http://c2pa.org/manifest">AABCHWp1bWIAAAAeanVtZGMycGEAEQAQgAAAqgA4m3EDYzJwYQAAAEH3anVtYgAAAEdqdW1kYzJtYQARABCAAACqADibcQN1cm46YzJwYToyOTViODNhYy05NTA2LTQ0MDMtYjJlOC1kNzc1NGI1MzVkODcAAAAB5Gp1bWIAAAApanVtZGMyYXMAEQAQgAAAqgA4m3EDYzJwYS5hc3NlcnRpb25zAAAAAO5qdW1iAAAAQWp1bWRjYm9yABEAEIAAAKoAOJtxE2MycGEuYWN0aW9ucy52MgAAAAAYYzJzaEf89DiFVkCYsQoHrU88EjMAAAClY2JvcqFnYWN0aW9uc4GjZmFjdGlvbmxjMnBhLmNyZWF0ZWRtc29mdHdhcmVBZ2VudGhDYW52YSBBSXFkaWdpdGFsU291cmNlVHlwZXhTaHR0cDovL2N2LmlwdGMub3JnL25ld3Njb2Rlcy9kaWdpdGFsc291cmNldHlwZS9jb21wb3NpdGVXaXRoVHJhaW5lZEFsZ29yaXRobWljTWVkaWEAAADFanVtYgAAAEBqdW1kY2JvcgARABCAAACqADibcRNjMnBhLmhhc2guZGF0YQAAAAAYYzJzaAgp5F/yGmkyfz2Hn9K09UIAAAB9Y2JvcqVqZXhjbHVzaW9uc4GiZXN0YXJ0GQERZmxlbmd0aBlYKGRuYW1lbmp1bWJmIG1hbmlmZXN0Y2FsZ2ZzaGEyNTZkaGFzaFggWwgboy9BH5r5CbmsqZghn/gTxagi54G46s4hmz77MYhjcGFkSQAAAAAAAAAAAAAAAgtqdW1iAAAAJ2p1bWRjMmNsABEAEIAAAKoAOJtxA2MycGEuY2xhaW0udjIAAAAB3GNib3Knamluc3RhbmNlSUR4LHhtcDppaWQ6ZGQyOTg2MWQtMTFiZC00OWM1LTgwNjQtNWJhZWIyOGU4MmY1dGNsYWltX2dlbmVyYXRvcl9pbmZvo2RuYW1lZ2MycGEtcnNndmVyc2lvbmUwLjAuMHdvcmcuY29udGVudGF1dGguYzJwYV9yc2UwLjAuMGlzaWduYXR1cmV4TXNlbGYjanVtYmY9L2MycGEvdXJuOmMycGE6Mjk1YjgzYWMtOTUwNi00NDAzLWIyZTgtZDc3NTRiNTM1ZDg3L2MycGEuc2lnbmF0dXJlcmNyZWF0ZWRfYXNzZXJ0aW9uc4GiY3VybHgpc2VsZiNqdW1iZj1jMnBhLmFzc2VydGlvbnMvYzJwYS5oYXNoLmRhdGFkaGFzaFggiw8lNJd4RxtPQJGhldlph28ZVJ8RoJ0AXZ2mDMS7+A5zZ2F0aGVyZWRfYXNzZXJ0aW9uc4GiY3VybHgqc2VsZiNqdW1iZj1jMnBhLmFzc2VydGlvbnMvYzJwYS5hY3Rpb25zLnYyZGhhc2hYIJDuTzs99aiocr6He4GgpcBrs1b+dNWUUCWK2FAcVxKOaGRjOnRpdGxlZTQuc3ZnY2FsZ2ZzaGEyNTYAAD25anVtYgAAAChqdW1kYzJjcwARABCAAACqADibcQNjMnBhLnNpZ25hdHVyZQAAAD2JY2JvctKEWRKBogE4Jhghg1kFPzCCBTswggMjoAMCAQICEQDKWcnS207T0CYERKuANAiRMA0GCSqGSIb3DQEBDQUAMCIxIDAeBgNVBAMTF1NpZ25pbmcgSW50ZXJtZWRpYXRlIENBMB4XDTI2MDQxMDIzNTExMFoXDTI2MDQxODIzNTExMFowODEOMAwGA1UEChMFQ2FudmExDjAMBgNVBAsTBUNhbnZhMRYwFAYDVQQDEw1DYW52YSBTaWduaW5nMIICIjANBgkqhkiG9w0BAQEFAAOCAg8AMIICCgKCAgEAx1pa70Q9tLi/zIivH7lxlpJwlI38/ZqIq3zHpYeIx3ROCn0YnzfkhMoHhEGvt4UFsaLsGe5L+GpHPsOdD6aLh1Cm0o955cEAfeIhi+ndEr7jW2adGeKT9ttDmaCP7dphX5zKPWuMI1TJMJp38f3QwVTjspTAWLx8Kc3VKgZBGEmfDh+bVk62gr5PgBZhfZqXth1gB+Zpcadct9gLDwZKkUYZ7ZNcEzJC6uTLLhKw6c77we2qO+yQwJ7ZaL6Qf0BdBwJLg62j6unz2ZkpcK7xk4+H4TYA6neoeel/VCJC7HXZDH3GxNLsfAfDGCLy/Zf0KsXd8ACv4rTFJSvHBtfReJyeqq+MxpowmOfKDdaA0KZfhxhI6VvqTZN+de49eN9aCgxH2VwcH/LlNlLfCcCztG6R7vDvvHZBfkhoJwXQbxiYwo3ZFpJNjvfe4uFjws3R2fXVnU/lm5z2vH1k2ff0VHYY27Hhwg4R4k+51nS8sOvnOPz3HMhfVaSJ1/5xl8tyiDolvgLurpkM824iKfYt6AE/C8bYE0qQvcAOW8nvBR/61Qieb/kJEgYDa7aT8c2zScrJoPI0gEgn4EqtCYErmEAkw1D9wXxnAvzUPc0hduW5POSQYf8SIu4u0VBluprpwCU+D3fAeEHDpATbKWiKcQ2/+zF6AjRfE9m/bfPlTx8CAwEAAaNWMFQwDgYDVR0PAQH/BAQDAgeAMBMGA1UdJQQMMAoGCCsGAQUFBwMEMAwGA1UdEwEB/wQCMAAwHwYDVR0jBBgwFoAUFKors/0hbnFZA1JloKp59ctI6QAwDQYJKoZIhvcNAQENBQADggIBAJdOcAoki9ONq88urVQ+48OECdJ5RGAuxzD5Ny/iw89JNXvIDX2a/FchhxqsJMQ6uwB9O+qZlVQ9DSLWnxaW9lTROPUM3ZloPFDcQN557mGbWfztaSbAB0ShcLOLTQo4sYL1pwE/AgGxi7PpjTQ/nYEHMUv+Rcw+mMe/WFnuJRdFvA1RCtVceUNjfxrt9FTRSFo3nDUlD1cM5bv1Fisw9GhxwPKoxxGcwHUUDESuvIcB0SK43PeJhCOuIpqYrslbufQLbMLrVZVsysdh/UEcj+282NIxK2nOVm+aBdFVNm/Y7B4WcUqbj23ks4WEwjGvVj/tQOfDDITdqvs4ax1nvnHSmUfZ4nEgpZfsPnHFYSBoSh1KpscfEE05VIkNoNO4GetvlKbQqae+XC8TMifCtoqDCrpNGBLauMGVoLYAyblD3v/hEh0pbDXbW/spvxGqqCljNeBPOUdGwbS8aEL+dsTVxEQ1Ny61sl+9Hnx9AncCgB7BV7KQncdMRJqJ1rGej/L15qLHQgeCRivOZyrfUEB4L/hMlt0ywznbcMxkAY0d0EZBHR3Gzn5gQ4yPeoXq0lENT1J6qre6ON1ZgrlXkCqztczt2ilT0RId7wIaqn75ajNwr4UqCvxLfOCdAS7x6rwRlCSy9J72EdN+xBSIv7PE6c1n9v+HvF5aw3T2cmNlWQboMIIG5DCCBMygAwIBAgIUfTq41t+X83CH/bwY0N/qAZLDP1MwDQYJKoZIhvcNAQELBQAwbTELMAkGA1UEBhMCQVUxDDAKBgNVBAgTA05TVzEPMA0GA1UEBxMGU3lkbmV5MRMwEQYDVQQKEwpDYW52YSBQcm9kMRAwDgYDVQQLEwdTaWduaW5nMRgwFgYDVQQDEw9TaWduaW5nIENBIFByb2QwHhcNMjYwNDAyMDUzOTEwWhcNMjYwNTAyMDUzOTQwWjAiMSAwHgYDVQQDExdTaWduaW5nIEludGVybWVkaWF0ZSBDQTCCAiIwDQYJKoZIhvcNAQEBBQADggIPADCCAgoCggIBAM+VP8cK3F8mzFpaPTUT9A3xEWo/S5+oj3UiU4AMkr/2KlgwHWmKy4nsMheaQ4kKaosGPpiA2J5hfW+iXZCbCS8/gceh+4SWCQ9W08QxmlTB0VTdaryV00ASNo6r8YUmQARxh/18o78Soj52Dr1IkmyJMlnlJaXyQCRGg/Mqkv354K5ctp5dsmeXUKPvsk4rDiSNegpxXySZk3tzBsQDZ0KKK6ZrkuxWN2SPpDJjdI1ApKzLaZd7r9TtkoZZOYXVMWICdKRgxWitYt0GwJYrf4P439/PBsK1pykolV7VwPFHZ4Zs5DvAH/vJ7iutZH10sgadJjhszn9/zPq8f05kPKndJNFBBtUCnSKx32HumADdZQcUWhf8yYFn2ZoYFg3Ns+wWBJjdhoweNe4AvJxx33lMiRyqFbsrPlfBs1zG1WWu6qkKPY1VKUnI4lGzJ4RAb3xqp6NWIRFnJECOvvhtSiwcRJKMRRJmJJ3gYWY04jtgraVzQ+XI0QZtSgON2evFoQuvaHll0uH17Z4VJrTSC/Pt8HvsHjjkl07xNhgRuykZNRj5VzYVxy7jbp6beHDJkF6Zqr5nz/Dru++CS9r6/mChbHvhChFI8I5vUxIMmaan/YDLcv/Ot5sna4BCjNExiZ/FwlnCwi1BYZwTDh/lriOEPeBXYR0zNnlLb/z/iepDAgMBAAGjggHFMIIBwTAOBgNVHQ8BAf8EBAMCAQYwEgYDVR0TAQH/BAgwBgEB/wIBADAdBgNVHQ4EFgQUFKors/0hbnFZA1JloKp59ctI6QAwHwYDVR0jBBgwFoAUEVVux6d1aMuNR/onO3uuB9JaAUIwgdcGCCsGAQUFBwEBBIHKMIHHMEwGCCsGAQUFBzABhkBodHRwczovL3BraS5jYW52YS1pbnRlcm5hbC5jb20vdjEvcGtpL2NhbnZhLXByb2QvbDEvc2lnbmluZy9vY3NwMHcGCCsGAQUFBzAChmtodHRwczovL3BraS5jYW52YS1pbnRlcm5hbC5jb20vdjEvcGtpL2NhbnZhLXByb2QvbDEvc2lnbmluZy9pc3N1ZXIvZmZhODJlNDAtMmUyYi1iNjhlLTNhYTItYTYzNWJjNDUzZWNjL2RlcjCBgAYDVR0fBHkwdzB1oHOgcYZvaHR0cHM6Ly9wa2kuY2FudmEtaW50ZXJuYWwuY29tL3YxL3BraS9jYW52YS1wcm9kL2wxL3NpZ25pbmcvaXNzdWVyL2ZmYTgyZTQwLTJlMmItYjY4ZS0zYWEyLWE2MzViYzQ1M2VjYy9jcmwvZGVyMA0GCSqGSIb3DQEBCwUAA4ICAQBFSsfHc7ALnvK05LcTRnsOlntLpo/A3mZrdO3I0PWDQlXVuilh2tPPmARW9kaB6aFf4DcIhO5btRlfU9fYhLW8qm/qZZ9sj4DfxHO1n1akPMZkeQio9Jn0exJBjmxgU8jI9HhAOsJAd3vxIUoKH0UECF/irVV5WJGNxVkzYnP5ALtmFW4CqTZy8FgkHNnWlAiM+8KbX5gWSn4l0psLV6jKiS260lBA+P9DGjix22NpsSslysSZJ/aX+AFydPGIrzLpCskyT7A+5++IR0j6sgKpqAVrwHxYBD71iUp3uPppR60j+59k3riA2jqup29TwLq8W8lxlHo+NzVpdFvLEVo9QUgb+Gxn2IVH6rpJcS1yweCb2PW9zXI8sWfzMX+Bzq4U68Nm1GgYTVVZ9Yp1JSjK1O+5lSvwAtxGQ5DjAFX1tXaGU7JGkJ3UT7QxNHuqkVkNaA1kr/DTUstw5nGrEVTrgjo5hGJmoeXCTEIslSazrRxvbSFz0gEix+oMet4qIU2XisB40aXTAnho/9XJKgizt1sFKXDzVIrt9OqepFPdtYEeWRKi4qkfXb4CHg3dgafPH5Z9D+WC4wRIaOTeERQ77wmYJGqnrkvDb5YCw4UAQ/u3Gf4wkT02LZCfTTIljLzBIk3KwJj1QhtVuYLaJr2vTtAwjQ1iTepqXlXp0vkXj1kGSjCCBkYwggQuoAMCAQICEQDwUHcpJysnvjxnHTJW0yMdMA0GCSqGSIb3DQEBDQUAMIGBMQswCQYDVQQGEwJBVTETMBEGA1UECgwKQ2FudmEgUHJvZDEXMBUGA1UECwwOQ2xvdWQgUGxhdGZvcm0xDDAKBgNVBAgMA05TVzElMCMGA1UEAwwcQ2FudmEgUHJvZCBSb290IENBIEdsb2JhbCBHMjEPMA0GA1UEBwwGU3lkbmV5MB4XDTI2MDIxNDAzMjIwN1oXDTI2MDgxMzAzMjIwN1owbTELMAkGA1UEBhMCQVUxDDAKBgNVBAgTA05TVzEPMA0GA1UEBxMGU3lkbmV5MRMwEQYDVQQKEwpDYW52YSBQcm9kMRAwDgYDVQQLEwdTaWduaW5nMRgwFgYDVQQDEw9TaWduaW5nIENBIFByb2QwggIiMA0GCSqGSIb3DQEBAQUAA4ICDwAwggIKAoICAQCpg8y2jTW1J0IAv89OpFDo6iAg0BQ3C+tmmWEfRZyviSSxXRkbz+jTy2Z5qx1ZpKcOywXY795hD8kI6t1HHLs4kDzHA1NZ58jPjqIhNhkT01vLjfDQ92DLnIEAB9ac3CBjFjum2q0kKwDiMlWwHdfAHUIOGHS7o3EJjuMgX6sOdmbbZckzJD3FWMxBRCEoV/Ic4R/yeSkgz6LN4Yb/KS5NymsmzcjcHO3bcF6fV/nfcax7e8PoIX1JwEV8ULsfYkKowHtYcG1suI3zH2Ao/OxDIYeLFLykB5pVA9zKWl223oiovEygbRJ6ajM+1AMlG+CyxFIneQg8yjE7udgULNbc8bqilF8m2GPCBIs5OkA/9xzkOpW2LUMN79a8oJN9wWZPDZVZFNuH7GK9pjJEbk7sq+KAW/vpIwgsA+Upvcx2HWe01H7DeFJ0LEBL+2dOsb+BK9MWMqHc5a+yWaYVJLTVFjPtFv1QDKzkm4IziBm0IIeIRVbwgPh5VVXc5z/3tj7Jc/FjY+XqLq7Zilqel6w9dhOh86ar2hvqLBfYMOfoJrjwx0KfB+EFHbrEoDn7KqoqwFTqm8Y3sxG+jNqbunwnQG30mFttLhw8llrmuCHqOcq39rBA/nQIrOjFmSNQOlif0o4234dEws+aXYkHRwz+LuMz5UmraHlZuXx9oAidmwIDAQABo4HLMIHIMBIGA1UdEwEB/wQIMAYBAf8CAQEwHwYDVR0jBBgwFoAU6UnqmN2caVR9jX+PoWzIxynkrXMwHQYDVR0OBBYEFBFVbsendWjLjUf6Jzt7rgfSWgFCMA4GA1UdDwEB/wQEAwIBhjBiBgNVHR8EWzBZMFegVaBThlFodHRwOi8vZDF1YWRuMHBqc2loOG0uY2xvdWRmcm9udC5uZXQvY3JsLzBhMGFhNDUyLTlmMjctNDg2My1hZWRhLWVkOTc2ZjIwZDhiYi5jcmwwDQYJKoZIhvcNAQENBQADggIBABdm/Q5HRrsuEL+B+vwNc+GacQHck8DmbmVFIG8602Te7fejzViT3stNnAurNoTaP2Hhcige2trnV1E4FBG3CHcBQmmXU20AANM3nGeqxLDXXn0F5aXJo6BKsNnN6uyrFKdWM9bseK09tZRM9xIICAiJyfXo7uoIgfxhqV4BDmyLEP0dqxYz+r97Fck0FtBZxYijOEHHdol6SXRTw00sJkin1iBRB4HaQwTPXM3ZvmyA97DH7fvpR51LnuBePay/dvDW1FCbV+02sWFUOybHz30aYboCow0pRGRudwJSej0zPPmS8H2DuIv2bQqZs+YFVQtYh4JyBo93L6jwLiJJVumLeMGjMXE/Wu4VmFXWZk1H5eLDmYwIoW7v8pBzJyD86Z9xK2Aw4gIO1cX3//hYg5DgNIHwzn3DnVF1mlYMzN6dgv5LrZBCNArL8lkjlbJPg0fQQim0xxvMcwQVUbRkau7Og+ipmVatmua+vcPG0f8i1EPs/r8HyLxsN59KAI2fpqc51stWZcx0GaJ5Q2YU3aEb3I3dZe7FrLPYcJqJfbNMQ4CoIKDKbeCBV9R1QGXXd4I4l/d1lc4lBGvrtg42p+yCld6TlX+gusUYUFqKqrJMRfDdX/2KomW47EM2hBNrXKNdT0L7ffBQ1iT0DZYEQ2jHer/Gzy/aSGVpDJu6QR47oWNwYWRZKO8AAAAAAAAAAAAAAAAAAAAAAAAAAAAAAAAAAAAAAAAAAAAAAAAAAAAAAAAAAAAAAAAAAAAAAAAAAAAAAAAAAAAAAAAAAAAAAAAAAAAAAAAAAAAAAAAAAAAAAAAAAAAAAAAAAAAAAAAAAAAAAAAAAAAAAAAAAAAAAAAAAAAAAAAAAAAAAAAAAAAAAAAAAAAAAAAAAAAAAAAAAAAAAAAAAAAAAAAAAAAAAAAAAAAAAAAAAAAAAAAAAAAAAAAAAAAAAAAAAAAAAAAAAAAAAAAAAAAAAAAAAAAAAAAAAAAAAAAAAAAAAAAAAAAAAAAAAAAAAAAAAAAAAAAAAAAAAAAAAAAAAAAAAAAAAAAAAAAAAAAAAAAAAAAAAAAAAAAAAAAAAAAAAAAAAAAAAAAAAAAAAAAAAAAAAAAAAAAAAAAAAAAAAAAAAAAAAAAAAAAAAAAAAAAAAAAAAAAAAAAAAAAAAAAAAAAAAAAAAAAAAAAAAAAAAAAAAAAAAAAAAAAAAAAAAAAAAAAAAAAAAAAAAAAAAAAAAAAAAAAAAAAAAAAAAAAAAAAAAAAAAAAAAAAAAAAAAAAAAAAAAAAAAAAAAAAAAAAAAAAAAAAAAAAAAAAAAAAAAAAAAAAAAAAAAAAAAAAAAAAAAAAAAAAAAAAAAAAAAAAAAAAAAAAAAAAAAAAAAAAAAAAAAAAAAAAAAAAAAAAAAAAAAAAAAAAAAAAAAAAAAAAAAAAAAAAAAAAAAAAAAAAAAAAAAAAAAAAAAAAAAAAAAAAAAAAAAAAAAAAAAAAAAAAAAAAAAAAAAAAAAAAAAAAAAAAAAAAAAAAAAAAAAAAAAAAAAAAAAAAAAAAAAAAAAAAAAAAAAAAAAAAAAAAAAAAAAAAAAAAAAAAAAAAAAAAAAAAAAAAAAAAAAAAAAAAAAAAAAAAAAAAAAAAAAAAAAAAAAAAAAAAAAAAAAAAAAAAAAAAAAAAAAAAAAAAAAAAAAAAAAAAAAAAAAAAAAAAAAAAAAAAAAAAAAAAAAAAAAAAAAAAAAAAAAAAAAAAAAAAAAAAAAAAAAAAAAAAAAAAAAAAAAAAAAAAAAAAAAAAAAAAAAAAAAAAAAAAAAAAAAAAAAAAAAAAAAAAAAAAAAAAAAAAAAAAAAAAAAAAAAAAAAAAAAAAAAAAAAAAAAAAAAAAAAAAAAAAAAAAAAAAAAAAAAAAAAAAAAAAAAAAAAAAAAAAAAAAAAAAAAAAAAAAAAAAAAAAAAAAAAAAAAAAAAAAAAAAAAAAAAAAAAAAAAAAAAAAAAAAAAAAAAAAAAAAAAAAAAAAAAAAAAAAAAAAAAAAAAAAAAAAAAAAAAAAAAAAAAAAAAAAAAAAAAAAAAAAAAAAAAAAAAAAAAAAAAAAAAAAAAAAAAAAAAAAAAAAAAAAAAAAAAAAAAAAAAAAAAAAAAAAAAAAAAAAAAAAAAAAAAAAAAAAAAAAAAAAAAAAAAAAAAAAAAAAAAAAAAAAAAAAAAAAAAAAAAAAAAAAAAAAAAAAAAAAAAAAAAAAAAAAAAAAAAAAAAAAAAAAAAAAAAAAAAAAAAAAAAAAAAAAAAAAAAAAAAAAAAAAAAAAAAAAAAAAAAAAAAAAAAAAAAAAAAAAAAAAAAAAAAAAAAAAAAAAAAAAAAAAAAAAAAAAAAAAAAAAAAAAAAAAAAAAAAAAAAAAAAAAAAAAAAAAAAAAAAAAAAAAAAAAAAAAAAAAAAAAAAAAAAAAAAAAAAAAAAAAAAAAAAAAAAAAAAAAAAAAAAAAAAAAAAAAAAAAAAAAAAAAAAAAAAAAAAAAAAAAAAAAAAAAAAAAAAAAAAAAAAAAAAAAAAAAAAAAAAAAAAAAAAAAAAAAAAAAAAAAAAAAAAAAAAAAAAAAAAAAAAAAAAAAAAAAAAAAAAAAAAAAAAAAAAAAAAAAAAAAAAAAAAAAAAAAAAAAAAAAAAAAAAAAAAAAAAAAAAAAAAAAAAAAAAAAAAAAAAAAAAAAAAAAAAAAAAAAAAAAAAAAAAAAAAAAAAAAAAAAAAAAAAAAAAAAAAAAAAAAAAAAAAAAAAAAAAAAAAAAAAAAAAAAAAAAAAAAAAAAAAAAAAAAAAAAAAAAAAAAAAAAAAAAAAAAAAAAAAAAAAAAAAAAAAAAAAAAAAAAAAAAAAAAAAAAAAAAAAAAAAAAAAAAAAAAAAAAAAAAAAAAAAAAAAAAAAAAAAAAAAAAAAAAAAAAAAAAAAAAAAAAAAAAAAAAAAAAAAAAAAAAAAAAAAAAAAAAAAAAAAAAAAAAAAAAAAAAAAAAAAAAAAAAAAAAAAAAAAAAAAAAAAAAAAAAAAAAAAAAAAAAAAAAAAAAAAAAAAAAAAAAAAAAAAAAAAAAAAAAAAAAAAAAAAAAAAAAAAAAAAAAAAAAAAAAAAAAAAAAAAAAAAAAAAAAAAAAAAAAAAAAAAAAAAAAAAAAAAAAAAAAAAAAAAAAAAAAAAAAAAAAAAAAAAAAAAAAAAAAAAAAAAAAAAAAAAAAAAAAAAAAAAAAAAAAAAAAAAAAAAAAAAAAAAAAAAAAAAAAAAAAAAAAAAAAAAAAAAAAAAAAAAAAAAAAAAAAAAAAAAAAAAAAAAAAAAAAAAAAAAAAAAAAAAAAAAAAAAAAAAAAAAAAAAAAAAAAAAAAAAAAAAAAAAAAAAAAAAAAAAAAAAAAAAAAAAAAAAAAAAAAAAAAAAAAAAAAAAAAAAAAAAAAAAAAAAAAAAAAAAAAAAAAAAAAAAAAAAAAAAAAAAAAAAAAAAAAAAAAAAAAAAAAAAAAAAAAAAAAAAAAAAAAAAAAAAAAAAAAAAAAAAAAAAAAAAAAAAAAAAAAAAAAAAAAAAAAAAAAAAAAAAAAAAAAAAAAAAAAAAAAAAAAAAAAAAAAAAAAAAAAAAAAAAAAAAAAAAAAAAAAAAAAAAAAAAAAAAAAAAAAAAAAAAAAAAAAAAAAAAAAAAAAAAAAAAAAAAAAAAAAAAAAAAAAAAAAAAAAAAAAAAAAAAAAAAAAAAAAAAAAAAAAAAAAAAAAAAAAAAAAAAAAAAAAAAAAAAAAAAAAAAAAAAAAAAAAAAAAAAAAAAAAAAAAAAAAAAAAAAAAAAAAAAAAAAAAAAAAAAAAAAAAAAAAAAAAAAAAAAAAAAAAAAAAAAAAAAAAAAAAAAAAAAAAAAAAAAAAAAAAAAAAAAAAAAAAAAAAAAAAAAAAAAAAAAAAAAAAAAAAAAAAAAAAAAAAAAAAAAAAAAAAAAAAAAAAAAAAAAAAAAAAAAAAAAAAAAAAAAAAAAAAAAAAAAAAAAAAAAAAAAAAAAAAAAAAAAAAAAAAAAAAAAAAAAAAAAAAAAAAAAAAAAAAAAAAAAAAAAAAAAAAAAAAAAAAAAAAAAAAAAAAAAAAAAAAAAAAAAAAAAAAAAAAAAAAAAAAAAAAAAAAAAAAAAAAAAAAAAAAAAAAAAAAAAAAAAAAAAAAAAAAAAAAAAAAAAAAAAAAAAAAAAAAAAAAAAAAAAAAAAAAAAAAAAAAAAAAAAAAAAAAAAAAAAAAAAAAAAAAAAAAAAAAAAAAAAAAAAAAAAAAAAAAAAAAAAAAAAAAAAAAAAAAAAAAAAAAAAAAAAAAAAAAAAAAAAAAAAAAAAAAAAAAAAAAAAAAAAAAAAAAAAAAAAAAAAAAAAAAAAAAAAAAAAAAAAAAAAAAAAAAAAAAAAAAAAAAAAAAAAAAAAAAAAAAAAAAAAAAAAAAAAAAAAAAAAAAAAAAAAAAAAAAAAAAAAAAAAAAAAAAAAAAAAAAAAAAAAAAAAAAAAAAAAAAAAAAAAAAAAAAAAAAAAAAAAAAAAAAAAAAAAAAAAAAAAAAAAAAAAAAAAAAAAAAAAAAAAAAAAAAAAAAAAAAAAAAAAAAAAAAAAAAAAAAAAAAAAAAAAAAAAAAAAAAAAAAAAAAAAAAAAAAAAAAAAAAAAAAAAAAAAAAAAAAAAAAAAAAAAAAAAAAAAAAAAAAAAAAAAAAAAAAAAAAAAAAAAAAAAAAAAAAAAAAAAAAAAAAAAAAAAAAAAAAAAAAAAAAAAAAAAAAAAAAAAAAAAAAAAAAAAAAAAAAAAAAAAAAAAAAAAAAAAAAAAAAAAAAAAAAAAAAAAAAAAAAAAAAAAAAAAAAAAAAAAAAAAAAAAAAAAAAAAAAAAAAAAAAAAAAAAAAAAAAAAAAAAAAAAAAAAAAAAAAAAAAAAAAAAAAAAAAAAAAAAAAAAAAAAAAAAAAAAAAAAAAAAAAAAAAAAAAAAAAAAAAAAAAAAAAAAAAAAAAAAAAAAAAAAAAAAAAAAAAAAAAAAAAAAAAAAAAAAAAAAAAAAAAAAAAAAAAAAAAAAAAAAAAAAAAAAAAAAAAAAAAAAAAAAAAAAAAAAAAAAAAAAAAAAAAAAAAAAAAAAAAAAAAAAAAAAAAAAAAAAAAAAAAAAAAAAAAAAAAAAAAAAAAAAAAAAAAAAAAAAAAAAAAAAAAAAAAAAAAAAAAAAAAAAAAAAAAAAAAAAAAAAAAAAAAAAAAAAAAAAAAAAAAAAAAAAAAAAAAAAAAAAAAAAAAAAAAAAAAAAAAAAAAAAAAAAAAAAAAAAAAAAAAAAAAAAAAAAAAAAAAAAAAAAAAAAAAAAAAAAAAAAAAAAAAAAAAAAAAAAAAAAAAAAAAAAAAAAAAAAAAAAAAAAAAAAAAAAAAAAAAAAAAAAAAAAAAAAAAAAAAAAAAAAAAAAAAAAAAAAAAAAAAAAAAAAAAAAAAAAAAAAAAAAAAAAAAAAAAAAAAAAAAAAAAAAAAAAAAAAAAAAAAAAAAAAAAAAAAAAAAAAAAAAAAAAAAAAAAAAAAAAAAAAAAAAAAAAAAAAAAAAAAAAAAAAAAAAAAAAAAAAAAAAAAAAAAAAAAAAAAAAAAAAAAAAAAAAAAAAAAAAAAAAAAAAAAAAAAAAAAAAAAAAAAAAAAAAAAAAAAAAAAAAAAAAAAAAAAAAAAAAAAAAAAAAAAAAAAAAAAAAAAAAAAAAAAAAAAAAAAAAAAAAAAAAAAAAAAAAAAAAAAAAAAAAAAAAAAAAAAAAAAAAAAAAAAAAAAAAAAAAAAAAAAAAAAAAAAAAAAAAAAAAAAAAAAAAAAAAAAAAAAAAAAAAAAAAAAAAAAAAAAAAAAAAAAAAAAAAAAAAAAAAAAAAAAAAAAAAAAAAAAAAAAAAAAAAAAAAAAAAAAAAAAAAAAAAAAAAAAAAAAAAAAAAAAAAAAAAAAAAAAAAAAAAAAAAAAAAAAAAAAAAAAAAAAAAAAAAAAAAAAAAAAAAAAAAAAAAAAAAAAAAAAAAAAAAAAAAAAAAAAAAAAAAAAAAAAAAAAAAAAAAAAAAAAAAAAAAAAAAAAAAAAAAAAAAAAAAAAAAAAAAAAAAAAAAAAAAAAAAAAAAAAAAAAAAAAAAAAAAAAAAAAAAAAAAAAAAAAAAAAAAAAAAAAAAAAAAAAAAAAAAAAAAAAAAAAAAAAAAAAAAAAAAAAAAAAAAAAAAAAAAAAAAAAAAAAAAAAAAAAAAAAAAAAAAAAAAAAAAAAAAAAAAAAAAAAAAAAAAAAAAAAAAAAAAAAAAAAAAAAAAAAAAAAAAAAAAAAAAAAAAAAAAAAAAAAAAAAAAAAAAAAAAAAAAAAAAAAAAAAAAAAAAAAAAAAAAAAAAAAAAAAAAAAAAAAAAAAAAAAAAAAAAAAAAAAAAAAAAAAAAAAAAAAAAAAAAAAAAAAAAAAAAAAAAAAAAAAAAAAAAAAAAAAAAAAAAAAAAAAAAAAAAAAAAAAAAAAAAAAAAAAAAAAAAAAAAAAAAAAAAAAAAAAAAAAAAAAAAAAAAAAAAAAAAAAAAAAAAAAAAAAAAAAAAAAAAAAAAAAAAAAAAAAAAAAAAAAAAAAAAAAAAAAAAAAAAAAAAAAAAAAAAAAAAAAAAAAAAAAAAAAAAAAAAAAAAAAAAAAAAAAAAAAAAAAAAAAAAAAAAAAAAAAAAAAAAAAAAAAAAAAAAAAAAAAAAAAAAAAAAAAAAAAAAAAAAAAAAAAAAAAAAAAAAAAAAAAAAAAAAAAAAAAAAAAAAAAAAAAAAAAAAAAAAAAAAAAAAAAAAAAAAAAAAAAAAAAAAAAAAAAAAAAAAAAAAAAAAAAAAAAAAAAAAAAAAAAAAAAAAAAAAAAAAAAAAAAAAAAAAAAAAAAAAAAAAAAAAAAAAAAAAAAAAAAAAAAAAAAAAAAAAAAAAAAAAAAAAAAAAAAAAAAAAAAAAAAAAAAAAAAAAAAAAAAAAAAAAAAAAAAAAAAAAAAAAAAAAAAAAAAAAAAAAAAAAAAAAAAAAAAAAAAAAAAAAAAAAAAAAAAAAAAAAAAAAAAAAAAAAAAAAAAAAAAAAAAAAAAAAAAAAAAAAAAAAAAAAAAAAAAAAAAAAAAAAAAAAAAAAAAAAAAAAAAAAAAAAAAAAAAAAAAAAAAAAAAAAAAAAAAAAAAAAAAAAAAAAAAAAAAAAAAAAAAAAAAAAAAAAAAAAAAAAAAAAAAAAAAAAAAAAAAAAAAAAAAAAAAAAAAAAAAAAAAAAAAAAAAAAAAAAAAAAAAAAAAAAAAAAAAAAAAAAAAAAAAAAAAAAAAAAAAAAAAAAAAAAAAAAAAAAAAAAAAAAAAAAAAAAAAAAAAAAAAAAAAAAAAAAAAAAAAAAAAAAAAAAAAAAAAAAAAAAAAAAAAAAAAAAAAAAAAAAAAAAAAAAAAAAAAAAAAAAAAAAAAAAAAAAAAAAAAAAAAAAAAAAAAAAAAAAAAAAAAAAAAAAAAAAAAAAAAAAAAAAAAAAAAAAAAAAAAAAAAAAAAAAAAAAAAAAAAAAAAAAAAAAAAAAAAAAAAAAAAAAAAAAAAAAAAAAAAAAAAAAAAAAAAAAAAAAAAAAAAAAAAAAAAAAAAAAAAAAAAAAAAAAAAAAAAAAAAAAAAAAAAAAAAAAAAAAAAAAAAAAAAAAAAAAAAAAAAAAAAAAAAAAAAAAAAAAAAAAAAAAAAAAAAAAAAAAAAAAAAAAAAAAAAAAAAAAAAAAAAAAAAAAAAAAAAAAAAAAAAAAAAAAAAAAAAAAAAAAAAAAAAAAAAAAAAAAAAAAAAAAAAAAAAAAAAAAAAAAAAAAAAAAAAAAAAAAAAAAAAAAAAAAAAAAAAAAAAAAAAAAAAAAAAAAAAAAAAAAAAAAAAAAAAAAAAAAAAAAAAAAAAAAAAAAAAAAAAAAAAAAAAAAAAAAAAAAAAAAAAAAAAAAAAAAAAAAAAAAAAAAAAAAAAAAAAAAAAAAAAAAAAAAAAAAAAAAAAAAAAAAAAAAAAAAAAAAAAAAAAAAAAAAAAAAAAAAAAAAAAAAAAAAAAAAAAAAAAAAAAAAAAAAAAAAAAAAAAAAAAAAAAAAAAAAAAAAAAAAAAAAAAAAAAAAAAAAAAAAAAAAAAAAAAAAAAAAAAAAAAAAAAAAAAAAAAAAAAAAAAAAAAAAAAAAAAAAAAAAAAAAAAAAAAAAAAAAAAAAAAAAAAAAAAAAAAAAAAAAAAAAAAAAAAAAAAAAAAAAAAAAAAAAAAAAAAAAAAAAAAAAAAAAAAAAAAAAAAAAAAAAAAAAAAAAAAAAAAAAAAAAAAAAAAAAAAAAAAAAAAAAAAAAAAAAAAAAAAAAAAAAAAAAAAAAAAAAAAAAAAAAAAAAAAAAAAAAAAAAAAAAAAAAAAAAAAAAAAAAAAAAAAAAAAAAAAAAAAAAAAAAAAAAAAAAAAAAAAAAAAAAAAAAAAAAAAAAAAAAAAAAAAAAAAAAAAAAAAAAAAAAAAAAAAAAAAAAAAAAAAAAAAAAAAAAAAAAAAAAAAAAAAAAAAAAAAAAAAAAAAAAAAAAAAAAAAAAAAAAAAAAAAAAAAAAAAAAAAAAAAAAAAAAAAAAAAAAAAAAAAAAAAAAAAAAAAAAAAAAAAAAAAAAAAAAAAAAAAAAAAAAAAAAAAAAAAAAAAAAAAAAAAAAAAAAAAAAAAAAAAAAAAAAAAAAAAAAAAAAAAAAAAAAAAAAAAAAAAAAAAAAAAAAAAAAAAAAAAAAAAAAAAAAAAAAAAAAAAAAAAAAAAAAAAAAAAAAAAAAAAAAAAAAAAAAAAAAAAAAAAAAAAAAAAAAAAAAAAAAAAAAAAAAAAAAAAAAAAAAAAAAAAAAAAAAAAAAAAAAAAAAAAAAAAAAAAAAAAAAAAAAAAAAAAAAAAAAAAAAAAAAAAAAAAAAAAAAAAAAAAAAAAAAAAAAAAAAAAAAAAAAAAAAAAAAAAAAAAAAAAAAAAAAAAAAAAAAAAAAAAAAAAAAAAAAAAAAAAAAAAAAAAAAAAAAAAAAAAAAAAAAAAAAAAAAAAAAAAAAAAAAAAAAAAAAAAAAAAAAAAAAAAAAAAAAAAAAAAAAAAAAAAAAAAAAAAAAAAAAAAAAAAAAAAAAAAAAAAAAAAAAAAAAAAAAAAAAAAAAAAAAAAAAAAAAAAAAAAAAAAAAAAAAAAAAAAAAAAAAAAAAAAAAAAAAAAAAAAAAAAAAAAAAAAAAAAAAAAAAAAAAAAAAAAAAAAAAAAAAAAAAAAAAAAAAAAAAAAAAAAAAAAAAAAAAAAAAAAAAAAAAAAAAAAAAAAAAAAAAAAAAAAAAAAAAAAAAAAAAAAAAAAAAAAAAAAAAAAAAAAAAAAAAAAAAAAAAAAAAAAAAAAAAAAAAAAAAAAAAAAAAAAAAAAAAAAAAAAAAAAAAAAAAAAAAAAAAAAAAAAAAAAAAAAAAAAAAAAAAAAAAAAAAAAAAAAAAAAAAAAAAAAAAAAAAAAAAAAAAAAAAAAAAAAAAAAAAAAAAAAAAAAAAAAAAAAAAAAAAAAAAAAAAAAAAAAAAAAAAAAAAAAAAAAAAAAAAAAAAAAAAAAAAAAAAAAAAAAAAAAAAAAAAAAAAAAAAAAAAAAAAAAAAAAAAAAAAAAAAAAAAAAAAAAAAAAAAAAAAAAAAAAAAAAAAAAAAAAAAAAAAAAAAAAAAAAAAAAAAAAAAAAAAAAAAAAAAAAAAAAAAAAAAAAAAAAAAAAAAAAAAAAAAAAAAAAAAAAAAAAAAAAAAAAAAAAAAAAAAAAAAAAAAAAAAAAAAAAAAAAAAAAAAAAAAAAAAAAAAAAAAAAAAAAAAAAAAAAAAAAAAAAAAAAAAAAAAAAAAAAAAAAAAAAAAAAAAAAAAAAAAAAAAAAAAAAAAAAAAAAAAAAAAAAAAAAAAAAAAAAAAAAAAAAAAAAAAAAAAAAAAAAAAAAAAAAAAAAAAAAAAAAAAAAAAAAAAAAAAAAAAAAAAAAAAAAAAAAAAAAAAAAAAAAAAAAAAAAAAAAAAAAAAAAAAAAAAAAAAAAAAAAAAAAAAAAAAAAAAAAAAAAAAAAAAAAAAAAAAAAAAAAAAAAAAAAAAAAAAAAAAAAAAAAAAAAAAAAAAAAAAAAAAAAAAAAAAAAAAAAAAAAAAAAAAAAAAAAAAAAAAAAAAAAAAAAAAAAAAAAAAAAAAAAAAAAAAAAAAAAAAAAAAAAAAAAAAAAAAAAAAAAAAAAAAAAAAAAAAAAAAAAAAAAAAAAAAAAAAAAAAAAAAAAAAAAAAAAAAAAAAAAAAAAAAAAAAAAAAAAAAAAAAAAAAAAAAAAAAAAAAAAAAAAAAAAAAAAAAAAAAAAAAAAAAAAAAAAAAAAAAAAAAAAAAAAAAAAAAAAAAAAAAAAAAAAAAAAAAAAAAAAAAAAAAAAAAAAAAAAAAAAAAAAAAAAAAAAAAAAAAAAAAAAAAAAAAAAAAAAAAAAAAAAAAAAAAAAAAAAAAAAAAAAAAAAAAAAAAAAAAAAAAAAAAAAAAAAAAAAAAAAAAAAAAAAAAAAAAAAAAAAAAAAAAAAAAAAAAAAAAAAAAAAAAAAAAAAAAAAAAAAAAAAAAAAAAAAAAAAAAAAAAAAAAAAAAAAAAAAAAAAAAAAAAAAAAAAAAAAAAAAAAAAAAAAAAAAAAAAAAAAAAAAAAAAAAAAAAAAAAAAAAAAAAAAAAAAAAAAAAAAAAAAAAAAAAAAAAAAAAAAAAAAAAAAAAAAAAAAAAAAAAAAAAAAAAAAAAAAAAAAAAAAAAAAAAAAAAAAAAAAAAAAAAAAAAAAAAAAAAAAAAAAAAAAAAAAAAAAAAAAAAAAAAAAAAAAAAAAAAAAAAAAAAAAAAAAAAAAAAAAAAAAAAAAAAAAAAAAAAAAAAAAAAAAAAAAAAAAAAAAAAAAAAAAAAAAAAAAAAAAAAAAAAAAAAAAAAAAAAAAAAAAAAAAAAAAAAAAAAAAAAAAAAAAAAAAAAAAAAAAAAAAAAAAAAAAAAAAAAAAAAAAAAAAAAAAAAAAAAAAAAAAAAAAAAAAAAAAAAAAAAAAAAAAAAAAAAAAAAAAAAAAAAAAAAAAAAAAAAAAAAAAAAAAAAAAAAAAAAAAAAAAAAAAAAAAAAAAAAAAAAAAAAAAAAAAAAAAAAAAAAAAAAAAAAAAAAAAAAAAAAAAAAAAAAAAAAAAAAAAAAAAAAAAAAAAAAAAAAAAAAAAAAAAAAAAAAAAAAAAAAAAAAAAAAAAAAAAAAAAAAAAAAAAAAAAAAAAAAAAAAAAAAAAAAAAAAAAAAAAAAAAAAAAAAAAAAAAAAAAAAAAAAAAAAAAAAAAAAAAAAAAAAAAAAAAAAAAAAAAAAAAAAAAAAAAAAAAAAAAAAAAAAAAAAAAAAAAAAAAAAAAAAAAAAAAAAAAAAAAAAAAAAAAAAAAAAAAAAAAAAAAAAAAAAAAAAAAAAAAAAAAAAAAAAAAAAAAAAAAAAAAAAAAAAAAAAAAAAAAAAAAAAAAAAAAAAAAAAAAAAAAAAAAAAAAAAAAAAAAAAAAAAAAAAAAAAAAAAAAAAAAAAAAAAAAAAAAAAAAAAAAAAAAAAAAAAAAAAAAAAAAAAAAAAAAAAAAAAAAAAAAAAAAAAAAAAAAAAAAAAAAAAAAAAAAAAAAAAAAAAAAAAAAAAAAAAAAAAAAAAAAAAAAAAAAAAAAAAAAAAAAAAAAAAAAAAAAAAAAAAAAAAAAAAAAAAAAAAAAAAAAAAAAAAAAAAAAAAAAAAAAAAAAAAAAAAAAAAAAAAAAAAAAAAAAAAAAAAAAAAAAAAAAAAAAAAAAAAAAAAAAAAAAAAAAAAAAAAAAAAAAAAAAAAAAAAAAAAAAAAAAAAAAAAAAAAAAAAAAAAAAAAAAAAAAAAAAAAAAAAAAAAAAAAAAAAAAAAAAAAAAAAAAAAAAAAAAAAAAAAAAAAAAAAAAAAAAAAAAAAAAAAAAAAAAAAAAAAAAAAAAAAAAAAAAAAAAAAAAAAAAAAAAAAAAAAAAAAAAAAAAAAAAAAAAAAAAAAAAAAAAAAAAAAAAAAAAAAAAAAAAAAAAAAAAAAAAAAAAAAAAAAAAAAAAAAAAAAAAAAAAAAAAAAAAAAAAAAAAAAAAAAAAAAAAAAAAAAAAAAAAAAAAAAAAAAAAAAAAAAAAAAAAAAAAAAAAAAAAAAAAAAAAAAAAAAAAAAAAAAAAAAAAAAAAAAAAAAAAAAAAAAAAAAAAAAAAAAAAAAAAAAAAAAAAAAAAAAAAAAAAAAAAAAAAAAAAAAAAAAAAAAAAAAAAAAAAAAAAAAAAAAAAAAAAAAAAAAAAAAAAAAAAAAAAAAAAAAAAAAAAAAAAAAAAAAAAAAAAAAAAAAAAAAAAAAAAAAAAAAAAAAAAAAAAAAAAAAAAAAAAAAAAAAAAAAAAAAAAAAAAAAAAAAAAAAAAAAAAAAAAAAAAAAAAAAAAAAAAAAAAAAAAAAAAAAAAAAAAAAAAAAAAAAAAAAAAAAAAAAAAAAAAAAAAAAAAAAAAAAAAAAAAAAAAAAAAAAAAAAAAAAAAAAAAAAAAAAAAAAAAAAAAAAAAAAAAAAAAAAAAAAAAAAAAAAAAAAAAAAAAAAAAAAAAAAAAAAAAAAAAAAAAAAAAAAAAAAAAAAAAAAAAAAAAAAAAAAAAAAAAAAAAAAAAAAAAAAAAAAAAAAAAAAAAAAAAAAAAAAAAAAAAAAAAAAAAAAAAAAAAAAAAAAAAAAAAAAAAAAAAAAAAAAAAAAAAAAAAAAAAAAAAAAAAAAAAAAAAAAAAAAAAAAAAAAAAAAAAAAAAAAAAAAAAAAAAAAAAAAAAAAAAAAAAAAAAAAAAAAAAAAAAAAAAAAAAAAAAAAAAAAAAAAAAAAAAAAAAAAAAAAAAAAAAAAAAAAAAAAAAAAAAAAAAAAAAAAAAAAAAAAAAAAAAAAAAAAAAAAAAAAAAAAAAAAAAAAAAAAAAAAAAAAAAAAAAAAAAAAAAAAAAAAAAAAAAAAAAAAAAAAAAAAAAAAAAAAAAAAAAAAAAAAAAAAAAAAAAAAAAAAAAAAAAAAAAAAAAAAAAAAAAAAAAAAAAAAAAAAAAAAAAAAAAAAAAAAAAAAAAAAAAAAAAAAAAAAAAAAAAAAAAAAAAAAAAAAAAAAAAAAAAAAAAAAAAAAAAAAAAAAAAAAAAAAAAAAAAAAAAAAAAAAAAAAAAAAAAAAAAAAAAAAAAAAAAAAAAAAAAAAAAAAAAAAAAAAAAAAAAAAAAAAAAAAAAAAAAAAAAAAAAAAAAAAAAAAAAAAAAAAAAAAAAAAAAAAAAAAAAAAAAAAAAAAAAAAAAAAAAAAAAAAAAAAAAAAAAAAAAAAAAAAAAAAAAAAAAAAAAAAAAAAAAAAAAAAAAAAAAAAAAAAAAAAAAAAAAAAAAAAAAAAAAAAAAAAAAAAAAAAAAAAAAAAAAAAAAAAAAAAAAAAAAAAAAAAAAAAAAAAAAAAAAAAAAAAAAAAAAAAAAAAAAAAAAAAAAAAAAAAAAAAAAAAAAAAAAAAAAAAAAAAAAAAAAAAAAAAAAAAAAAAAAAAAAAAAAAAAAAAAAAAAAAAAAAAAAAAAAAAAAAAAAAAAAAAAAAAAAAAAAAAAAAAAAAAAAAAAAAAAAAAAAAAAAAAAAAAAAAAAAAAAAAAAAAAAAAAAAAAAAAAAAAAAAAAAAAAAAAAAAAAAAAAAAAAAAAAAAAAAAAAAAAAAAAAAAAAAAAAAAAAAAAAAAAAAAAAAAAAAAAAAAAAAAAAAAAAAAAAAAAAAAAAAAAAAAAAAAAAAAAAAAAAAAAAAAAAAAAAAAAAAAAAAAAAAAAAAAAAAAAAAAAAAAAAAAAAAAAAAAAAAAAAAAAAAAAAAAAAAAAAAAAAAAAAAAAAAAAAAAAAAAAAAAAAAAAAAAAAAAAAAAAAAAAAAAAAAAAAAAAAAAAAAAAAAAAAAAAAAAAAAAAAAAAAAAAAAAAAAAAAAAAAAAAAAAAAAAAAAAAAAAAAAAAAAAAAAAAAAAAAAAAAAAAAAAAAAAAAAAAAAAAAAAAAAAAAAAAAAAAAAAAAAAAAAAAAAAAAAAAAAAAAAAAAAAAAAAAAAAAAAAAAAAAAAAAAAAAAAAAAAAAAAAAAAAAAAAAAAAAAAAAAAAAAAAAAAAAAAAAAAAAAAAAAAAAAAAAAAAAAAAAAAAAAAAAAAAAAAAAAAAAAAAAAAAAAAAAAAAAAAAAAAAAAAAAAAAAAAAAAAAAAAAAAAAAAAAAAAAAAAAAAAAAAAAAAAAAAAAAAAAAAAAAAAAAAAAAAAAAAAAAAAAAAAAAAAAAAAAAAAAAAAAAAAAAAAAAAAAAAAAAAAAAAAAAAAAAAAAAAAAAAAAAAAAAAAAAAAAAAAAAAAAAAAAAAAAAAAAAAAAAAAAAAAAAAAAAAAAAAAAAAAAAAAAAAAAAAAAAAAAAAAAAAAAAAAAAAAAAAAAAAAAAAAAAAAAAAAAAAAAAAAAAAAAAAAAAAAAAAAAAAAAAAAAAAAAAAAAAAAAAAAAAAAAAAAAAAAAAAAAAAAAAAAAAAAAAAAAAAAAAAAAAAAAAAAAAAAAAAAAAAAAAAAAAAAAAAAAAAAAAAAAAAAAAAAAAAAAAAAAAAAAAAAAAAAAAAAAAAAAAAAAAAAAAAAAAAAAAAAAAAAAAAAAAAAAAAAAAAAAAAAAAAAAAAAAAAAAAAAAAAAAAAAAAAAAAAAAAAAAAAAAAAAAAAAAAAAAAAAAAAAAAAAAAAAAAAAAAAAAAAAAAAAAAAAAAAAAAAAAAAAD2WQIAQcKbM8XnG6jHUBeZ0LreWqaG3WHWkOhuCGAn64jxMm+oh2UFEAGN6EX70Kd2T0CinT1gFwPDMS8ql/B7y2oIzZn5xzRsKQval3W8/vbes1C1UgbA9hQbsv/Odcta91acIhdvSluGG1+U7Vgxy9QAf7yQUi0qJKc7aVqADrFaGxM3F4E8gRT7yTccjx/jxHNUUgvl1iOJVR8LyvYI/BdKJJGDOFIqLOrcP2Q/wkP3DDzTgksGRQZnep+3dMvezvUxzOReS/YW/0O8oMzyvyQAI0lpJsrfjQ4/01UYCOI338m8Wp5GQQ0EmOp7wcGi6Xkl3aM5BKpqxVMjEPLj0+BUNcXicTNC5XWuBItksHKT8ZqFa8bsrNkNQb4aIR5daIIONhGAefGkNWOrT6hodIfrugE+5L9Hjhh/OegL7DOkhdkkyN9ymKwTSwfe7r8lD7itlKXvkXH2mp72ww97ZOv++rgzgI5wPbKzIUgVrtDbVZ8evXvLlaxciGYGLbVW2LdbSUwSO5XGinkD3QXXcocs3XHUKsilNd5ephPkudQsHZOkxz19MB1G9guS3HsUcdCEREcJp0/SLEwC1OX6Jl12kgZ8aiF316dDsQmk67jqNickME97bZPM//P2i6feBaEyXVQf5OtCwYHkXnHkZj8GyUGEYLNr4JMkXfCL/7QwU78=</manifest><ContainsAiGeneratedContent>Yes</ContainsAiGeneratedContent></metadata><defs><filter x="0%" y="0%" width="100%" height="100%" id="f3597a3e74"><feColorMatrix values="0 0 0 0 1 0 0 0 0 1 0 0 0 0 1 0 0 0 1 0" color-interpolation-filters="sRGB"></feColorMatrix></filter><filter x="0%" y="0%" width="100%" height="100%" id="57826c5dd0"><feColorMatrix values="0 0 0 0 1 0 0 0 0 1 0 0 0 0 1 0.2126 0.7152 0.0722 0 0" color-interpolation-filters="sRGB"></feColorMatrix></filter><g></g><clipPath id="634c2636c2"><path d="M 0 31.324219 L 187 31.324219 L 187 155.492188 L 0 155.492188 Z M 0 31.324219 " clip-rule="nonzero"></path></clipPath><mask id="9da2fff467"><g filter="url(#f3597a3e74)"><g filter="url(#57826c5dd0)" transform="matrix(0.173793, 0, 0, 0.174222, 0.000004, 31.166894)"><image x="0" y="0" width="1076" height="717" preserveAspectRatio="xMidYMid meet"></image></g></g></mask><clipPath id="0bfb91986f"><path d="M 28.164062 62.410156 L 156.820312 62.410156 L 156.820312 134 L 28.164062 134 Z M 28.164062 62.410156 " clip-rule="nonzero"></path></clipPath><mask id="7b12158bc8"><g filter="url(#f3597a3e74)"><g filter="url(#57826c5dd0)" transform="matrix(0.173861, 0, 0, 0.17345, 28.165251, 62.411689)"><image x="0" y="0" width="740" height="414" preserveAspectRatio="xMidYMid meet"></image></g></g></mask><clipPath id="3f1afdf52a"><path d="M 42.132812 70 L 72.800781 70 L 72.800781 115 L 42.132812 115 Z M 42.132812 70 " clip-rule="nonzero"></path></clipPath><mask id="380031ef6f"><g filter="url(#f3597a3e74)"><g filter="url(#57826c5dd0)" transform="matrix(0.174251, 0, 0, 0.173492, 42.130999, 69.576725)"><image x="0" y="0" width="176" height="263" preserveAspectRatio="xMidYMid meet"></image></g></g></mask><clipPath id="3248e178cb"><path d="M 5 5 L 10 5 L 10 11.613281 L 5 11.613281 Z M 5 5 " clip-rule="nonzero"></path></clipPath><clipPath id="56c03ceca8"><path d="M 5 5 L 10 5 L 10 11.613281 L 5 11.613281 Z M 5 5 " clip-rule="nonzero"></path></clipPath><clipPath id="01f0ca5a64"><rect x="0" width="62" y="0" height="12"></rect></clipPath><clipPath id="243692a3ce"><path d="M 0.441406 4 L 9 4 L 9 18 L 0.441406 18 Z M 0.441406 4 " clip-rule="nonzero"></path></clipPath><clipPath id="20e66d03d2"><path d="M 0.441406 20 L 9 20 L 9 34 L 0.441406 34 Z M 0.441406 20 " clip-rule="nonzero"></path></clipPath><clipPath id="5c63b2def2"><path d="M 0.441406 4 L 9 4 L 9 17 L 0.441406 17 Z M 0.441406 4 " clip-rule="nonzero"></path></clipPath><clipPath id="2efefd386f"><path d="M 0.441406 20 L 9 20 L 9 34 L 0.441406 34 Z M 0.441406 20 " clip-rule="nonzero"></path></clipPath><clipPath id="182f2b2c29"><rect x="0" width="66" y="0" height="37"></rect></clipPath></defs><g clip-path="url(#634c2636c2)"><g mask="url(#9da2fff467)"><g transform="matrix(0.173793, 0, 0, 0.174222, 0.000004, 31.166894)"><image x="0" y="0" width="1076" height="717" preserveAspectRatio="xMidYMid meet"></image></g></g></g><g clip-path="url(#0bfb91986f)"><g mask="url(#7b12158bc8)"><g transform="matrix(0.173861, 0, 0, 0.17345, 28.165251, 62.411689)"><image x="0" y="0" width="740" height="414" preserveAspectRatio="xMidYMid meet"></image></g></g></g><g clip-path="url(#3f1afdf52a)"><g mask="url(#380031ef6f)"><g transform="matrix(0.174251, 0, 0, 0.173492, 42.130999, 69.576725)"><image x="0" y="0" width="176" height="263" preserveAspectRatio="xMidYMid meet"></image></g></g></g><g transform="matrix(1, 0, 0, 1, 74, 104)"><g clip-path="url(#01f0ca5a64)"><g fill="#ffffff" fill-opacity="1"><g transform="translate(1.182896, 9.350912)"><g><path d="M 4.46875 -2.125 C 4.46875 -1.5 4.289062 -0.972656 3.9375 -0.546875 C 3.582031 -0.117188 3.097656 0.09375 2.484375 0.09375 C 1.972656 0.09375 1.554688 -0.0976562 1.234375 -0.484375 L 1.0625 0.015625 L 0.546875 0.015625 C 0.566406 -0.234375 0.578125 -0.421875 0.578125 -0.546875 L 0.578125 -6.015625 C 0.578125 -6.023438 0.554688 -6.097656 0.515625 -6.234375 C 0.484375 -6.378906 0.460938 -6.460938 0.453125 -6.484375 L 1.59375 -6.484375 L 1.59375 -4.4375 C 1.59375 -4.300781 1.585938 -4.171875 1.578125 -4.046875 C 1.566406 -3.929688 1.5625 -3.867188 1.5625 -3.859375 C 1.90625 -4.140625 2.304688 -4.28125 2.765625 -4.28125 C 3.117188 -4.28125 3.425781 -4.164062 3.6875 -3.9375 C 3.957031 -3.71875 4.15625 -3.445312 4.28125 -3.125 C 4.40625 -2.800781 4.46875 -2.46875 4.46875 -2.125 Z M 3.359375 -2.0625 C 3.359375 -2.28125 3.332031 -2.488281 3.28125 -2.6875 C 3.226562 -2.894531 3.125 -3.082031 2.96875 -3.25 C 2.8125 -3.425781 2.625 -3.515625 2.40625 -3.515625 C 2.101562 -3.515625 1.832031 -3.378906 1.59375 -3.109375 L 1.59375 -1.734375 C 1.59375 -1.410156 1.660156 -1.140625 1.796875 -0.921875 C 1.941406 -0.703125 2.164062 -0.59375 2.46875 -0.59375 C 2.6875 -0.59375 2.867188 -0.679688 3.015625 -0.859375 C 3.160156 -1.035156 3.253906 -1.222656 3.296875 -1.421875 C 3.335938 -1.628906 3.359375 -1.84375 3.359375 -2.0625 Z M 3.359375 -2.0625 "></path></g></g></g><g clip-path="url(#3248e178cb)"><g fill="#ffffff" fill-opacity="1"><g transform="translate(5.888275, 9.350912)"><g><path d="M 3.859375 -4.1875 L 2.375 0.03125 C 1.945312 1.25 1.335938 1.859375 0.546875 1.859375 L 0.234375 1.859375 L 0.234375 1.140625 C 0.296875 1.160156 0.367188 1.171875 0.453125 1.171875 C 0.597656 1.171875 0.726562 1.132812 0.84375 1.0625 C 0.96875 1 1.070312 0.898438 1.15625 0.765625 C 1.238281 0.628906 1.300781 0.503906 1.34375 0.390625 C 1.394531 0.285156 1.445312 0.148438 1.5 -0.015625 L -0.015625 -4.1875 L 1.078125 -4.1875 C 1.109375 -4.070312 1.222656 -3.726562 1.421875 -3.15625 C 1.628906 -2.59375 1.785156 -2.160156 1.890625 -1.859375 C 1.910156 -1.785156 1.929688 -1.671875 1.953125 -1.515625 C 1.984375 -1.367188 2.003906 -1.273438 2.015625 -1.234375 C 2.066406 -1.585938 2.101562 -1.796875 2.125 -1.859375 L 2.9375 -4.1875 Z M 3.859375 -4.1875 "></path></g></g></g></g><g fill="#ffffff" fill-opacity="1"><g transform="translate(9.733531, 9.350912)"><g></g></g></g><g fill="#ffffff" fill-opacity="1"><g transform="translate(11.673024, 9.350912)"><g><path d="M 4.1875 -1.8125 C 4.1875 -1.21875 3.972656 -0.75 3.546875 -0.40625 C 3.128906 -0.0703125 2.617188 0.09375 2.015625 0.09375 C 1.242188 0.09375 0.582031 -0.0664062 0.03125 -0.390625 L 0.4375 -1.328125 C 0.875 -0.910156 1.363281 -0.703125 1.90625 -0.703125 C 2.195312 -0.703125 2.441406 -0.78125 2.640625 -0.9375 C 2.847656 -1.101562 2.953125 -1.328125 2.953125 -1.609375 C 2.953125 -1.804688 2.882812 -1.984375 2.75 -2.140625 C 2.613281 -2.296875 2.445312 -2.421875 2.25 -2.515625 C 2.050781 -2.609375 1.832031 -2.710938 1.59375 -2.828125 C 1.351562 -2.953125 1.132812 -3.078125 0.9375 -3.203125 C 0.738281 -3.328125 0.570312 -3.5 0.4375 -3.71875 C 0.300781 -3.945312 0.234375 -4.210938 0.234375 -4.515625 C 0.234375 -5.097656 0.429688 -5.535156 0.828125 -5.828125 C 1.234375 -6.128906 1.773438 -6.28125 2.453125 -6.28125 C 2.703125 -6.28125 2.992188 -6.226562 3.328125 -6.125 C 3.660156 -6.019531 3.910156 -5.898438 4.078125 -5.765625 L 3.5 -5.046875 C 3.1875 -5.328125 2.800781 -5.46875 2.34375 -5.46875 C 2.101562 -5.46875 1.894531 -5.40625 1.71875 -5.28125 C 1.550781 -5.15625 1.46875 -4.984375 1.46875 -4.765625 C 1.46875 -4.566406 1.535156 -4.390625 1.671875 -4.234375 C 1.804688 -4.085938 1.972656 -3.96875 2.171875 -3.875 C 2.367188 -3.789062 2.585938 -3.6875 2.828125 -3.5625 C 3.066406 -3.4375 3.285156 -3.3125 3.484375 -3.1875 C 3.679688 -3.0625 3.847656 -2.878906 3.984375 -2.640625 C 4.117188 -2.398438 4.1875 -2.125 4.1875 -1.8125 Z M 4.1875 -1.8125 "></path></g></g></g><g fill="#ffffff" fill-opacity="1"><g transform="translate(16.024236, 9.350912)"><g><path d="M 4.359375 -0.15625 C 4.304688 -0.144531 4.226562 -0.125 4.125 -0.09375 C 4.019531 -0.0625 3.929688 -0.0351562 3.859375 -0.015625 C 3.796875 0.00390625 3.71875 0.0195312 3.625 0.03125 C 3.53125 0.0507812 3.445312 0.0625 3.375 0.0625 C 3.207031 0.0625 3.0625 0.0078125 2.9375 -0.09375 C 2.820312 -0.195312 2.742188 -0.332031 2.703125 -0.5 C 2.421875 -0.101562 2 0.09375 1.4375 0.09375 C 1.09375 0.09375 0.804688 0 0.578125 -0.1875 C 0.359375 -0.382812 0.25 -0.648438 0.25 -0.984375 C 0.25 -1.273438 0.316406 -1.519531 0.453125 -1.71875 C 0.597656 -1.925781 0.789062 -2.078125 1.03125 -2.171875 C 1.28125 -2.273438 1.523438 -2.347656 1.765625 -2.390625 C 2.003906 -2.429688 2.265625 -2.453125 2.546875 -2.453125 L 2.546875 -3 C 2.546875 -3.21875 2.492188 -3.367188 2.390625 -3.453125 C 2.296875 -3.546875 2.144531 -3.59375 1.9375 -3.59375 C 1.632812 -3.59375 1.273438 -3.429688 0.859375 -3.109375 L 0.4375 -3.765625 C 0.945312 -4.117188 1.515625 -4.296875 2.140625 -4.296875 C 2.585938 -4.296875 2.929688 -4.179688 3.171875 -3.953125 C 3.421875 -3.722656 3.546875 -3.378906 3.546875 -2.921875 L 3.546875 -1.09375 C 3.546875 -0.8125 3.613281 -0.671875 3.75 -0.671875 C 3.800781 -0.671875 3.941406 -0.707031 4.171875 -0.78125 Z M 2.546875 -1.5625 L 2.546875 -1.765625 C 1.722656 -1.765625 1.3125 -1.539062 1.3125 -1.09375 C 1.3125 -0.96875 1.359375 -0.867188 1.453125 -0.796875 C 1.554688 -0.722656 1.671875 -0.6875 1.796875 -0.6875 C 2.015625 -0.6875 2.191406 -0.773438 2.328125 -0.953125 C 2.472656 -1.140625 2.546875 -1.34375 2.546875 -1.5625 Z M 2.546875 -1.5625 "></path></g></g></g><g fill="#ffffff" fill-opacity="1"><g transform="translate(20.18993, 9.350912)"><g><path d="M 2.96875 -4.28125 L 2.796875 -3.28125 L 2.765625 -3.28125 C 2.515625 -3.28125 2.296875 -3.207031 2.109375 -3.0625 C 1.929688 -2.925781 1.757812 -2.738281 1.59375 -2.5 L 1.59375 0 L 0.578125 0 L 0.578125 -3.0625 C 0.578125 -3.570312 0.484375 -3.945312 0.296875 -4.1875 L 1.375 -4.28125 C 1.5 -4 1.566406 -3.703125 1.578125 -3.390625 C 1.722656 -3.640625 1.921875 -3.847656 2.171875 -4.015625 C 2.429688 -4.191406 2.695312 -4.28125 2.96875 -4.28125 Z M 2.96875 -4.28125 "></path></g></g></g><g fill="#ffffff" fill-opacity="1"><g transform="translate(23.1329, 9.350912)"><g><path d="M 4.359375 -0.15625 C 4.304688 -0.144531 4.226562 -0.125 4.125 -0.09375 C 4.019531 -0.0625 3.929688 -0.0351562 3.859375 -0.015625 C 3.796875 0.00390625 3.71875 0.0195312 3.625 0.03125 C 3.53125 0.0507812 3.445312 0.0625 3.375 0.0625 C 3.207031 0.0625 3.0625 0.0078125 2.9375 -0.09375 C 2.820312 -0.195312 2.742188 -0.332031 2.703125 -0.5 C 2.421875 -0.101562 2 0.09375 1.4375 0.09375 C 1.09375 0.09375 0.804688 0 0.578125 -0.1875 C 0.359375 -0.382812 0.25 -0.648438 0.25 -0.984375 C 0.25 -1.273438 0.316406 -1.519531 0.453125 -1.71875 C 0.597656 -1.925781 0.789062 -2.078125 1.03125 -2.171875 C 1.28125 -2.273438 1.523438 -2.347656 1.765625 -2.390625 C 2.003906 -2.429688 2.265625 -2.453125 2.546875 -2.453125 L 2.546875 -3 C 2.546875 -3.21875 2.492188 -3.367188 2.390625 -3.453125 C 2.296875 -3.546875 2.144531 -3.59375 1.9375 -3.59375 C 1.632812 -3.59375 1.273438 -3.429688 0.859375 -3.109375 L 0.4375 -3.765625 C 0.945312 -4.117188 1.515625 -4.296875 2.140625 -4.296875 C 2.585938 -4.296875 2.929688 -4.179688 3.171875 -3.953125 C 3.421875 -3.722656 3.546875 -3.378906 3.546875 -2.921875 L 3.546875 -1.09375 C 3.546875 -0.8125 3.613281 -0.671875 3.75 -0.671875 C 3.800781 -0.671875 3.941406 -0.707031 4.171875 -0.78125 Z M 2.546875 -1.5625 L 2.546875 -1.765625 C 1.722656 -1.765625 1.3125 -1.539062 1.3125 -1.09375 C 1.3125 -0.96875 1.359375 -0.867188 1.453125 -0.796875 C 1.554688 -0.722656 1.671875 -0.6875 1.796875 -0.6875 C 2.015625 -0.6875 2.191406 -0.773438 2.328125 -0.953125 C 2.472656 -1.140625 2.546875 -1.34375 2.546875 -1.5625 Z M 2.546875 -1.5625 "></path></g></g></g><g fill="#ffffff" fill-opacity="1"><g transform="translate(27.298594, 9.350912)"><g><path d="M 4.0625 0 L 3.03125 0 L 3.03125 -2.734375 C 3.03125 -2.890625 3.019531 -3.015625 3 -3.109375 C 2.988281 -3.210938 2.941406 -3.304688 2.859375 -3.390625 C 2.773438 -3.472656 2.65625 -3.515625 2.5 -3.515625 C 2.375 -3.515625 2.210938 -3.460938 2.015625 -3.359375 C 1.828125 -3.253906 1.6875 -3.148438 1.59375 -3.046875 L 1.59375 0 L 0.59375 0 L 0.59375 -6.03125 L 0.484375 -6.484375 L 1.59375 -6.484375 L 1.59375 -3.796875 C 2.007812 -4.140625 2.414062 -4.3125 2.8125 -4.3125 C 3.269531 -4.3125 3.59375 -4.179688 3.78125 -3.921875 C 3.96875 -3.671875 4.0625 -3.304688 4.0625 -2.828125 Z M 4.0625 0 "></path></g></g></g><g fill="#ffffff" fill-opacity="1"><g transform="translate(31.911216, 9.350912)"><g></g></g></g><g fill="#ffffff" fill-opacity="1"><g transform="translate(33.850709, 9.350912)"><g><path d="M 3.4375 -6.359375 L 3.171875 -5.671875 C 2.992188 -5.796875 2.820312 -5.859375 2.65625 -5.859375 C 2.445312 -5.859375 2.273438 -5.8125 2.140625 -5.71875 C 2.015625 -5.625 1.921875 -5.488281 1.859375 -5.3125 C 1.804688 -5.132812 1.769531 -4.972656 1.75 -4.828125 C 1.738281 -4.679688 1.734375 -4.507812 1.734375 -4.3125 L 1.734375 -4.1875 L 2.765625 -4.1875 L 2.5625 -3.515625 L 1.734375 -3.515625 L 1.734375 0.015625 L 0.71875 0.015625 L 0.71875 -3.515625 L 0.03125 -3.515625 L 0.03125 -4.125 C 0.445312 -4.125 0.679688 -4.242188 0.734375 -4.484375 C 0.753906 -4.554688 0.78125 -4.679688 0.8125 -4.859375 C 0.84375 -5.046875 0.867188 -5.171875 0.890625 -5.234375 C 0.910156 -5.304688 0.941406 -5.40625 0.984375 -5.53125 C 1.035156 -5.65625 1.097656 -5.765625 1.171875 -5.859375 C 1.242188 -5.953125 1.335938 -6.050781 1.453125 -6.15625 C 1.742188 -6.414062 2.128906 -6.546875 2.609375 -6.546875 C 2.953125 -6.546875 3.226562 -6.484375 3.4375 -6.359375 Z M 3.4375 -6.359375 "></path></g></g></g><g fill="#ffffff" fill-opacity="1"><g transform="translate(36.279294, 9.350912)"><g><path d="M 3.9375 -2.484375 C 3.9375 -2.140625 3.789062 -1.96875 3.5 -1.96875 L 1.296875 -1.96875 C 1.296875 -1.613281 1.390625 -1.289062 1.578125 -1 C 1.765625 -0.71875 2.03125 -0.578125 2.375 -0.578125 C 2.550781 -0.578125 2.734375 -0.617188 2.921875 -0.703125 C 3.109375 -0.785156 3.269531 -0.894531 3.40625 -1.03125 L 3.828125 -0.359375 C 3.648438 -0.210938 3.421875 -0.0976562 3.140625 -0.015625 C 2.859375 0.0546875 2.585938 0.09375 2.328125 0.09375 C 1.671875 0.09375 1.15625 -0.0976562 0.78125 -0.484375 C 0.40625 -0.878906 0.21875 -1.40625 0.21875 -2.0625 C 0.21875 -2.6875 0.394531 -3.21875 0.75 -3.65625 C 1.101562 -4.09375 1.582031 -4.3125 2.1875 -4.3125 C 2.738281 -4.3125 3.164062 -4.144531 3.46875 -3.8125 C 3.78125 -3.476562 3.9375 -3.035156 3.9375 -2.484375 Z M 2.875 -2.828125 C 2.875 -3.054688 2.8125 -3.242188 2.6875 -3.390625 C 2.570312 -3.546875 2.40625 -3.625 2.1875 -3.625 C 1.96875 -3.625 1.769531 -3.519531 1.59375 -3.3125 C 1.414062 -3.101562 1.320312 -2.878906 1.3125 -2.640625 L 2.734375 -2.640625 C 2.828125 -2.640625 2.875 -2.703125 2.875 -2.828125 Z M 2.875 -2.828125 "></path></g></g></g><g fill="#ffffff" fill-opacity="1"><g transform="translate(40.444988, 9.350912)"><g><path d="M 1.5625 0 L 0.53125 0 L 0.53125 -6.03125 C 0.53125 -6.039062 0.519531 -6.078125 0.5 -6.140625 C 0.488281 -6.210938 0.472656 -6.285156 0.453125 -6.359375 C 0.441406 -6.441406 0.4375 -6.484375 0.4375 -6.484375 L 1.5625 -6.484375 Z M 1.5625 0 "></path></g></g></g><g fill="#ffffff" fill-opacity="1"><g transform="translate(42.561564, 9.350912)"><g><path d="M 1.5625 0 L 0.53125 0 L 0.53125 -6.03125 C 0.53125 -6.039062 0.519531 -6.078125 0.5 -6.140625 C 0.488281 -6.210938 0.472656 -6.285156 0.453125 -6.359375 C 0.441406 -6.441406 0.4375 -6.484375 0.4375 -6.484375 L 1.5625 -6.484375 Z M 1.5625 0 "></path></g></g></g><g fill="#ffffff" fill-opacity="1"><g transform="translate(44.67814, 9.350912)"><g><path d="M 1.546875 -0.390625 C 1.546875 0.179688 1.238281 0.6875 0.625 1.125 C 0.46875 0.976562 0.359375 0.863281 0.296875 0.78125 C 0.378906 0.707031 0.460938 0.601562 0.546875 0.46875 C 0.640625 0.34375 0.6875 0.242188 0.6875 0.171875 C 0.6875 0.109375 0.648438 0.0507812 0.578125 0 C 0.515625 -0.0625 0.445312 -0.140625 0.375 -0.234375 C 0.3125 -0.328125 0.28125 -0.441406 0.28125 -0.578125 C 0.28125 -0.742188 0.332031 -0.882812 0.4375 -1 C 0.550781 -1.113281 0.691406 -1.171875 0.859375 -1.171875 C 1.066406 -1.171875 1.234375 -1.09375 1.359375 -0.9375 C 1.484375 -0.78125 1.546875 -0.597656 1.546875 -0.390625 Z M 1.546875 -0.390625 "></path></g></g></g><g fill="#ffffff" fill-opacity="1"><g transform="translate(46.659796, 9.350912)"><g></g></g></g><g fill="#ffffff" fill-opacity="1"><g transform="translate(48.599291, 9.350912)"><g><path d="M 1.71875 0 L 0.5625 0 L 0.5625 -5.65625 C 0.5625 -5.664062 0.550781 -5.707031 0.53125 -5.78125 C 0.507812 -5.863281 0.488281 -5.945312 0.46875 -6.03125 C 0.445312 -6.113281 0.4375 -6.160156 0.4375 -6.171875 L 1.71875 -6.171875 Z M 1.71875 0 "></path></g></g></g><g fill="#ffffff" fill-opacity="1"><g transform="translate(50.859223, 9.350912)"><g><path d="M 4.09375 0 L 3.078125 0 L 3.078125 -2.734375 C 3.078125 -2.890625 3.066406 -3.015625 3.046875 -3.109375 C 3.035156 -3.210938 2.988281 -3.304688 2.90625 -3.390625 C 2.820312 -3.472656 2.703125 -3.515625 2.546875 -3.515625 C 2.421875 -3.515625 2.257812 -3.460938 2.0625 -3.359375 C 1.875 -3.253906 1.734375 -3.148438 1.640625 -3.046875 L 1.640625 0 L 0.625 0 L 0.625 -3 C 0.625 -3.5625 0.535156 -3.945312 0.359375 -4.15625 L 1.421875 -4.28125 C 1.492188 -4.132812 1.539062 -3.957031 1.5625 -3.75 C 1.976562 -4.125 2.410156 -4.3125 2.859375 -4.3125 C 3.304688 -4.3125 3.625 -4.179688 3.8125 -3.921875 C 4 -3.671875 4.09375 -3.304688 4.09375 -2.828125 Z M 4.09375 0 "></path></g></g></g><g fill="#ffffff" fill-opacity="1"><g transform="translate(55.471842, 9.350912)"><g><path d="M 3.734375 -0.296875 C 3.453125 -0.148438 3.207031 -0.0507812 3 0 C 2.789062 0.0625 2.546875 0.09375 2.265625 0.09375 C 1.617188 0.09375 1.113281 -0.101562 0.75 -0.5 C 0.394531 -0.90625 0.21875 -1.4375 0.21875 -2.09375 C 0.21875 -2.757812 0.414062 -3.289062 0.8125 -3.6875 C 1.207031 -4.09375 1.734375 -4.296875 2.390625 -4.296875 C 2.597656 -4.296875 2.816406 -4.257812 3.046875 -4.1875 C 3.285156 -4.113281 3.488281 -4.015625 3.65625 -3.890625 L 3.15625 -3.25 C 2.863281 -3.46875 2.578125 -3.578125 2.296875 -3.578125 C 1.972656 -3.578125 1.726562 -3.421875 1.5625 -3.109375 C 1.40625 -2.804688 1.328125 -2.476562 1.328125 -2.125 C 1.328125 -1.863281 1.359375 -1.625 1.421875 -1.40625 C 1.492188 -1.195312 1.613281 -1.007812 1.78125 -0.84375 C 1.945312 -0.6875 2.160156 -0.609375 2.421875 -0.609375 C 2.679688 -0.609375 2.972656 -0.742188 3.296875 -1.015625 Z M 3.734375 -0.296875 "></path></g></g></g><g fill="#ffffff" fill-opacity="1"><g transform="translate(59.266504, 9.350912)"><g><path d="M 1.34375 -1.015625 C 1.476562 -0.878906 1.546875 -0.722656 1.546875 -0.546875 C 1.546875 -0.367188 1.484375 -0.21875 1.359375 -0.09375 C 1.234375 0.03125 1.078125 0.09375 0.890625 0.09375 C 0.710938 0.09375 0.5625 0.03125 0.4375 -0.09375 C 0.3125 -0.21875 0.25 -0.367188 0.25 -0.546875 C 0.25 -0.722656 0.3125 -0.875 0.4375 -1 C 0.5625 -1.132812 0.710938 -1.203125 0.890625 -1.203125 C 1.078125 -1.203125 1.226562 -1.140625 1.34375 -1.015625 Z M 1.34375 -1.015625 "></path></g></g></g><g fill="#000000" fill-opacity="1"><g transform="translate(1.033814, 9.20183)"><g><path d="M 4.46875 -2.125 C 4.46875 -1.5 4.289062 -0.972656 3.9375 -0.546875 C 3.582031 -0.117188 3.097656 0.09375 2.484375 0.09375 C 1.972656 0.09375 1.554688 -0.0976562 1.234375 -0.484375 L 1.0625 0.015625 L 0.546875 0.015625 C 0.566406 -0.234375 0.578125 -0.421875 0.578125 -0.546875 L 0.578125 -6.015625 C 0.578125 -6.023438 0.554688 -6.097656 0.515625 -6.234375 C 0.484375 -6.378906 0.460938 -6.460938 0.453125 -6.484375 L 1.59375 -6.484375 L 1.59375 -4.4375 C 1.59375 -4.300781 1.585938 -4.171875 1.578125 -4.046875 C 1.566406 -3.929688 1.5625 -3.867188 1.5625 -3.859375 C 1.90625 -4.140625 2.304688 -4.28125 2.765625 -4.28125 C 3.117188 -4.28125 3.425781 -4.164062 3.6875 -3.9375 C 3.957031 -3.71875 4.15625 -3.445312 4.28125 -3.125 C 4.40625 -2.800781 4.46875 -2.46875 4.46875 -2.125 Z M 3.359375 -2.0625 C 3.359375 -2.28125 3.332031 -2.488281 3.28125 -2.6875 C 3.226562 -2.894531 3.125 -3.082031 2.96875 -3.25 C 2.8125 -3.425781 2.625 -3.515625 2.40625 -3.515625 C 2.101562 -3.515625 1.832031 -3.378906 1.59375 -3.109375 L 1.59375 -1.734375 C 1.59375 -1.410156 1.660156 -1.140625 1.796875 -0.921875 C 1.941406 -0.703125 2.164062 -0.59375 2.46875 -0.59375 C 2.6875 -0.59375 2.867188 -0.679688 3.015625 -0.859375 C 3.160156 -1.035156 3.253906 -1.222656 3.296875 -1.421875 C 3.335938 -1.628906 3.359375 -1.84375 3.359375 -2.0625 Z M 3.359375 -2.0625 "></path></g></g></g><g clip-path="url(#56c03ceca8)"><g fill="#000000" fill-opacity="1"><g transform="translate(5.739193, 9.20183)"><g><path d="M 3.859375 -4.1875 L 2.375 0.03125 C 1.945312 1.25 1.335938 1.859375 0.546875 1.859375 L 0.234375 1.859375 L 0.234375 1.140625 C 0.296875 1.160156 0.367188 1.171875 0.453125 1.171875 C 0.597656 1.171875 0.726562 1.132812 0.84375 1.0625 C 0.96875 1 1.070312 0.898438 1.15625 0.765625 C 1.238281 0.628906 1.300781 0.503906 1.34375 0.390625 C 1.394531 0.285156 1.445312 0.148438 1.5 -0.015625 L -0.015625 -4.1875 L 1.078125 -4.1875 C 1.109375 -4.070312 1.222656 -3.726562 1.421875 -3.15625 C 1.628906 -2.59375 1.785156 -2.160156 1.890625 -1.859375 C 1.910156 -1.785156 1.929688 -1.671875 1.953125 -1.515625 C 1.984375 -1.367188 2.003906 -1.273438 2.015625 -1.234375 C 2.066406 -1.585938 2.101562 -1.796875 2.125 -1.859375 L 2.9375 -4.1875 Z M 3.859375 -4.1875 "></path></g></g></g></g><g fill="#000000" fill-opacity="1"><g transform="translate(9.584449, 9.20183)"><g></g></g></g><g fill="#000000" fill-opacity="1"><g transform="translate(11.523942, 9.20183)"><g><path d="M 4.1875 -1.8125 C 4.1875 -1.21875 3.972656 -0.75 3.546875 -0.40625 C 3.128906 -0.0703125 2.617188 0.09375 2.015625 0.09375 C 1.242188 0.09375 0.582031 -0.0664062 0.03125 -0.390625 L 0.4375 -1.328125 C 0.875 -0.910156 1.363281 -0.703125 1.90625 -0.703125 C 2.195312 -0.703125 2.441406 -0.78125 2.640625 -0.9375 C 2.847656 -1.101562 2.953125 -1.328125 2.953125 -1.609375 C 2.953125 -1.804688 2.882812 -1.984375 2.75 -2.140625 C 2.613281 -2.296875 2.445312 -2.421875 2.25 -2.515625 C 2.050781 -2.609375 1.832031 -2.710938 1.59375 -2.828125 C 1.351562 -2.953125 1.132812 -3.078125 0.9375 -3.203125 C 0.738281 -3.328125 0.570312 -3.5 0.4375 -3.71875 C 0.300781 -3.945312 0.234375 -4.210938 0.234375 -4.515625 C 0.234375 -5.097656 0.429688 -5.535156 0.828125 -5.828125 C 1.234375 -6.128906 1.773438 -6.28125 2.453125 -6.28125 C 2.703125 -6.28125 2.992188 -6.226562 3.328125 -6.125 C 3.660156 -6.019531 3.910156 -5.898438 4.078125 -5.765625 L 3.5 -5.046875 C 3.1875 -5.328125 2.800781 -5.46875 2.34375 -5.46875 C 2.101562 -5.46875 1.894531 -5.40625 1.71875 -5.28125 C 1.550781 -5.15625 1.46875 -4.984375 1.46875 -4.765625 C 1.46875 -4.566406 1.535156 -4.390625 1.671875 -4.234375 C 1.804688 -4.085938 1.972656 -3.96875 2.171875 -3.875 C 2.367188 -3.789062 2.585938 -3.6875 2.828125 -3.5625 C 3.066406 -3.4375 3.285156 -3.3125 3.484375 -3.1875 C 3.679688 -3.0625 3.847656 -2.878906 3.984375 -2.640625 C 4.117188 -2.398438 4.1875 -2.125 4.1875 -1.8125 Z M 4.1875 -1.8125 "></path></g></g></g><g fill="#000000" fill-opacity="1"><g transform="translate(15.875154, 9.20183)"><g><path d="M 4.359375 -0.15625 C 4.304688 -0.144531 4.226562 -0.125 4.125 -0.09375 C 4.019531 -0.0625 3.929688 -0.0351562 3.859375 -0.015625 C 3.796875 0.00390625 3.71875 0.0195312 3.625 0.03125 C 3.53125 0.0507812 3.445312 0.0625 3.375 0.0625 C 3.207031 0.0625 3.0625 0.0078125 2.9375 -0.09375 C 2.820312 -0.195312 2.742188 -0.332031 2.703125 -0.5 C 2.421875 -0.101562 2 0.09375 1.4375 0.09375 C 1.09375 0.09375 0.804688 0 0.578125 -0.1875 C 0.359375 -0.382812 0.25 -0.648438 0.25 -0.984375 C 0.25 -1.273438 0.316406 -1.519531 0.453125 -1.71875 C 0.597656 -1.925781 0.789062 -2.078125 1.03125 -2.171875 C 1.28125 -2.273438 1.523438 -2.347656 1.765625 -2.390625 C 2.003906 -2.429688 2.265625 -2.453125 2.546875 -2.453125 L 2.546875 -3 C 2.546875 -3.21875 2.492188 -3.367188 2.390625 -3.453125 C 2.296875 -3.546875 2.144531 -3.59375 1.9375 -3.59375 C 1.632812 -3.59375 1.273438 -3.429688 0.859375 -3.109375 L 0.4375 -3.765625 C 0.945312 -4.117188 1.515625 -4.296875 2.140625 -4.296875 C 2.585938 -4.296875 2.929688 -4.179688 3.171875 -3.953125 C 3.421875 -3.722656 3.546875 -3.378906 3.546875 -2.921875 L 3.546875 -1.09375 C 3.546875 -0.8125 3.613281 -0.671875 3.75 -0.671875 C 3.800781 -0.671875 3.941406 -0.707031 4.171875 -0.78125 Z M 2.546875 -1.5625 L 2.546875 -1.765625 C 1.722656 -1.765625 1.3125 -1.539062 1.3125 -1.09375 C 1.3125 -0.96875 1.359375 -0.867188 1.453125 -0.796875 C 1.554688 -0.722656 1.671875 -0.6875 1.796875 -0.6875 C 2.015625 -0.6875 2.191406 -0.773438 2.328125 -0.953125 C 2.472656 -1.140625 2.546875 -1.34375 2.546875 -1.5625 Z M 2.546875 -1.5625 "></path></g></g></g><g fill="#000000" fill-opacity="1"><g transform="translate(20.040848, 9.20183)"><g><path d="M 2.96875 -4.28125 L 2.796875 -3.28125 L 2.765625 -3.28125 C 2.515625 -3.28125 2.296875 -3.207031 2.109375 -3.0625 C 1.929688 -2.925781 1.757812 -2.738281 1.59375 -2.5 L 1.59375 0 L 0.578125 0 L 0.578125 -3.0625 C 0.578125 -3.570312 0.484375 -3.945312 0.296875 -4.1875 L 1.375 -4.28125 C 1.5 -4 1.566406 -3.703125 1.578125 -3.390625 C 1.722656 -3.640625 1.921875 -3.847656 2.171875 -4.015625 C 2.429688 -4.191406 2.695312 -4.28125 2.96875 -4.28125 Z M 2.96875 -4.28125 "></path></g></g></g><g fill="#000000" fill-opacity="1"><g transform="translate(22.983818, 9.20183)"><g><path d="M 4.359375 -0.15625 C 4.304688 -0.144531 4.226562 -0.125 4.125 -0.09375 C 4.019531 -0.0625 3.929688 -0.0351562 3.859375 -0.015625 C 3.796875 0.00390625 3.71875 0.0195312 3.625 0.03125 C 3.53125 0.0507812 3.445312 0.0625 3.375 0.0625 C 3.207031 0.0625 3.0625 0.0078125 2.9375 -0.09375 C 2.820312 -0.195312 2.742188 -0.332031 2.703125 -0.5 C 2.421875 -0.101562 2 0.09375 1.4375 0.09375 C 1.09375 0.09375 0.804688 0 0.578125 -0.1875 C 0.359375 -0.382812 0.25 -0.648438 0.25 -0.984375 C 0.25 -1.273438 0.316406 -1.519531 0.453125 -1.71875 C 0.597656 -1.925781 0.789062 -2.078125 1.03125 -2.171875 C 1.28125 -2.273438 1.523438 -2.347656 1.765625 -2.390625 C 2.003906 -2.429688 2.265625 -2.453125 2.546875 -2.453125 L 2.546875 -3 C 2.546875 -3.21875 2.492188 -3.367188 2.390625 -3.453125 C 2.296875 -3.546875 2.144531 -3.59375 1.9375 -3.59375 C 1.632812 -3.59375 1.273438 -3.429688 0.859375 -3.109375 L 0.4375 -3.765625 C 0.945312 -4.117188 1.515625 -4.296875 2.140625 -4.296875 C 2.585938 -4.296875 2.929688 -4.179688 3.171875 -3.953125 C 3.421875 -3.722656 3.546875 -3.378906 3.546875 -2.921875 L 3.546875 -1.09375 C 3.546875 -0.8125 3.613281 -0.671875 3.75 -0.671875 C 3.800781 -0.671875 3.941406 -0.707031 4.171875 -0.78125 Z M 2.546875 -1.5625 L 2.546875 -1.765625 C 1.722656 -1.765625 1.3125 -1.539062 1.3125 -1.09375 C 1.3125 -0.96875 1.359375 -0.867188 1.453125 -0.796875 C 1.554688 -0.722656 1.671875 -0.6875 1.796875 -0.6875 C 2.015625 -0.6875 2.191406 -0.773438 2.328125 -0.953125 C 2.472656 -1.140625 2.546875 -1.34375 2.546875 -1.5625 Z M 2.546875 -1.5625 "></path></g></g></g><g fill="#000000" fill-opacity="1"><g transform="translate(27.149512, 9.20183)"><g><path d="M 4.0625 0 L 3.03125 0 L 3.03125 -2.734375 C 3.03125 -2.890625 3.019531 -3.015625 3 -3.109375 C 2.988281 -3.210938 2.941406 -3.304688 2.859375 -3.390625 C 2.773438 -3.472656 2.65625 -3.515625 2.5 -3.515625 C 2.375 -3.515625 2.210938 -3.460938 2.015625 -3.359375 C 1.828125 -3.253906 1.6875 -3.148438 1.59375 -3.046875 L 1.59375 0 L 0.59375 0 L 0.59375 -6.03125 L 0.484375 -6.484375 L 1.59375 -6.484375 L 1.59375 -3.796875 C 2.007812 -4.140625 2.414062 -4.3125 2.8125 -4.3125 C 3.269531 -4.3125 3.59375 -4.179688 3.78125 -3.921875 C 3.96875 -3.671875 4.0625 -3.304688 4.0625 -2.828125 Z M 4.0625 0 "></path></g></g></g><g fill="#000000" fill-opacity="1"><g transform="translate(31.762133, 9.20183)"><g></g></g></g><g fill="#000000" fill-opacity="1"><g transform="translate(33.701627, 9.20183)"><g><path d="M 3.4375 -6.359375 L 3.171875 -5.671875 C 2.992188 -5.796875 2.820312 -5.859375 2.65625 -5.859375 C 2.445312 -5.859375 2.273438 -5.8125 2.140625 -5.71875 C 2.015625 -5.625 1.921875 -5.488281 1.859375 -5.3125 C 1.804688 -5.132812 1.769531 -4.972656 1.75 -4.828125 C 1.738281 -4.679688 1.734375 -4.507812 1.734375 -4.3125 L 1.734375 -4.1875 L 2.765625 -4.1875 L 2.5625 -3.515625 L 1.734375 -3.515625 L 1.734375 0.015625 L 0.71875 0.015625 L 0.71875 -3.515625 L 0.03125 -3.515625 L 0.03125 -4.125 C 0.445312 -4.125 0.679688 -4.242188 0.734375 -4.484375 C 0.753906 -4.554688 0.78125 -4.679688 0.8125 -4.859375 C 0.84375 -5.046875 0.867188 -5.171875 0.890625 -5.234375 C 0.910156 -5.304688 0.941406 -5.40625 0.984375 -5.53125 C 1.035156 -5.65625 1.097656 -5.765625 1.171875 -5.859375 C 1.242188 -5.953125 1.335938 -6.050781 1.453125 -6.15625 C 1.742188 -6.414062 2.128906 -6.546875 2.609375 -6.546875 C 2.953125 -6.546875 3.226562 -6.484375 3.4375 -6.359375 Z M 3.4375 -6.359375 "></path></g></g></g><g fill="#000000" fill-opacity="1"><g transform="translate(36.130211, 9.20183)"><g><path d="M 3.9375 -2.484375 C 3.9375 -2.140625 3.789062 -1.96875 3.5 -1.96875 L 1.296875 -1.96875 C 1.296875 -1.613281 1.390625 -1.289062 1.578125 -1 C 1.765625 -0.71875 2.03125 -0.578125 2.375 -0.578125 C 2.550781 -0.578125 2.734375 -0.617188 2.921875 -0.703125 C 3.109375 -0.785156 3.269531 -0.894531 3.40625 -1.03125 L 3.828125 -0.359375 C 3.648438 -0.210938 3.421875 -0.0976562 3.140625 -0.015625 C 2.859375 0.0546875 2.585938 0.09375 2.328125 0.09375 C 1.671875 0.09375 1.15625 -0.0976562 0.78125 -0.484375 C 0.40625 -0.878906 0.21875 -1.40625 0.21875 -2.0625 C 0.21875 -2.6875 0.394531 -3.21875 0.75 -3.65625 C 1.101562 -4.09375 1.582031 -4.3125 2.1875 -4.3125 C 2.738281 -4.3125 3.164062 -4.144531 3.46875 -3.8125 C 3.78125 -3.476562 3.9375 -3.035156 3.9375 -2.484375 Z M 2.875 -2.828125 C 2.875 -3.054688 2.8125 -3.242188 2.6875 -3.390625 C 2.570312 -3.546875 2.40625 -3.625 2.1875 -3.625 C 1.96875 -3.625 1.769531 -3.519531 1.59375 -3.3125 C 1.414062 -3.101562 1.320312 -2.878906 1.3125 -2.640625 L 2.734375 -2.640625 C 2.828125 -2.640625 2.875 -2.703125 2.875 -2.828125 Z M 2.875 -2.828125 "></path></g></g></g><g fill="#000000" fill-opacity="1"><g transform="translate(40.295905, 9.20183)"><g><path d="M 1.5625 0 L 0.53125 0 L 0.53125 -6.03125 C 0.53125 -6.039062 0.519531 -6.078125 0.5 -6.140625 C 0.488281 -6.210938 0.472656 -6.285156 0.453125 -6.359375 C 0.441406 -6.441406 0.4375 -6.484375 0.4375 -6.484375 L 1.5625 -6.484375 Z M 1.5625 0 "></path></g></g></g><g fill="#000000" fill-opacity="1"><g transform="translate(42.412481, 9.20183)"><g><path d="M 1.5625 0 L 0.53125 0 L 0.53125 -6.03125 C 0.53125 -6.039062 0.519531 -6.078125 0.5 -6.140625 C 0.488281 -6.210938 0.472656 -6.285156 0.453125 -6.359375 C 0.441406 -6.441406 0.4375 -6.484375 0.4375 -6.484375 L 1.5625 -6.484375 Z M 1.5625 0 "></path></g></g></g><g fill="#000000" fill-opacity="1"><g transform="translate(44.529057, 9.20183)"><g><path d="M 1.546875 -0.390625 C 1.546875 0.179688 1.238281 0.6875 0.625 1.125 C 0.46875 0.976562 0.359375 0.863281 0.296875 0.78125 C 0.378906 0.707031 0.460938 0.601562 0.546875 0.46875 C 0.640625 0.34375 0.6875 0.242188 0.6875 0.171875 C 0.6875 0.109375 0.648438 0.0507812 0.578125 0 C 0.515625 -0.0625 0.445312 -0.140625 0.375 -0.234375 C 0.3125 -0.328125 0.28125 -0.441406 0.28125 -0.578125 C 0.28125 -0.742188 0.332031 -0.882812 0.4375 -1 C 0.550781 -1.113281 0.691406 -1.171875 0.859375 -1.171875 C 1.066406 -1.171875 1.234375 -1.09375 1.359375 -0.9375 C 1.484375 -0.78125 1.546875 -0.597656 1.546875 -0.390625 Z M 1.546875 -0.390625 "></path></g></g></g><g fill="#000000" fill-opacity="1"><g transform="translate(46.510713, 9.20183)"><g></g></g></g><g fill="#000000" fill-opacity="1"><g transform="translate(48.450209, 9.20183)"><g><path d="M 1.71875 0 L 0.5625 0 L 0.5625 -5.65625 C 0.5625 -5.664062 0.550781 -5.707031 0.53125 -5.78125 C 0.507812 -5.863281 0.488281 -5.945312 0.46875 -6.03125 C 0.445312 -6.113281 0.4375 -6.160156 0.4375 -6.171875 L 1.71875 -6.171875 Z M 1.71875 0 "></path></g></g></g><g fill="#000000" fill-opacity="1"><g transform="translate(50.71014, 9.20183)"><g><path d="M 4.09375 0 L 3.078125 0 L 3.078125 -2.734375 C 3.078125 -2.890625 3.066406 -3.015625 3.046875 -3.109375 C 3.035156 -3.210938 2.988281 -3.304688 2.90625 -3.390625 C 2.820312 -3.472656 2.703125 -3.515625 2.546875 -3.515625 C 2.421875 -3.515625 2.257812 -3.460938 2.0625 -3.359375 C 1.875 -3.253906 1.734375 -3.148438 1.640625 -3.046875 L 1.640625 0 L 0.625 0 L 0.625 -3 C 0.625 -3.5625 0.535156 -3.945312 0.359375 -4.15625 L 1.421875 -4.28125 C 1.492188 -4.132812 1.539062 -3.957031 1.5625 -3.75 C 1.976562 -4.125 2.410156 -4.3125 2.859375 -4.3125 C 3.304688 -4.3125 3.625 -4.179688 3.8125 -3.921875 C 4 -3.671875 4.09375 -3.304688 4.09375 -2.828125 Z M 4.09375 0 "></path></g></g></g><g fill="#000000" fill-opacity="1"><g transform="translate(55.322759, 9.20183)"><g><path d="M 3.734375 -0.296875 C 3.453125 -0.148438 3.207031 -0.0507812 3 0 C 2.789062 0.0625 2.546875 0.09375 2.265625 0.09375 C 1.617188 0.09375 1.113281 -0.101562 0.75 -0.5 C 0.394531 -0.90625 0.21875 -1.4375 0.21875 -2.09375 C 0.21875 -2.757812 0.414062 -3.289062 0.8125 -3.6875 C 1.207031 -4.09375 1.734375 -4.296875 2.390625 -4.296875 C 2.597656 -4.296875 2.816406 -4.257812 3.046875 -4.1875 C 3.285156 -4.113281 3.488281 -4.015625 3.65625 -3.890625 L 3.15625 -3.25 C 2.863281 -3.46875 2.578125 -3.578125 2.296875 -3.578125 C 1.972656 -3.578125 1.726562 -3.421875 1.5625 -3.109375 C 1.40625 -2.804688 1.328125 -2.476562 1.328125 -2.125 C 1.328125 -1.863281 1.359375 -1.625 1.421875 -1.40625 C 1.492188 -1.195312 1.613281 -1.007812 1.78125 -0.84375 C 1.945312 -0.6875 2.160156 -0.609375 2.421875 -0.609375 C 2.679688 -0.609375 2.972656 -0.742188 3.296875 -1.015625 Z M 3.734375 -0.296875 "></path></g></g></g><g fill="#000000" fill-opacity="1"><g transform="translate(59.117421, 9.20183)"><g><path d="M 1.34375 -1.015625 C 1.476562 -0.878906 1.546875 -0.722656 1.546875 -0.546875 C 1.546875 -0.367188 1.484375 -0.21875 1.359375 -0.09375 C 1.234375 0.03125 1.078125 0.09375 0.890625 0.09375 C 0.710938 0.09375 0.5625 0.03125 0.4375 -0.09375 C 0.3125 -0.21875 0.25 -0.367188 0.25 -0.546875 C 0.25 -0.722656 0.3125 -0.875 0.4375 -1 C 0.5625 -1.132812 0.710938 -1.203125 0.890625 -1.203125 C 1.078125 -1.203125 1.226562 -1.140625 1.34375 -1.015625 Z M 1.34375 -1.015625 "></path></g></g></g></g></g><g transform="matrix(1, 0, 0, 1, 74, 68)"><g clip-path="url(#182f2b2c29)"><g clip-path="url(#243692a3ce)"><g fill="#ffffff" fill-opacity="1"><g transform="translate(0.763327, 16.885696)"><g><path d="M 8.109375 -3.515625 C 8.109375 -2.359375 7.703125 -1.445312 6.890625 -0.78125 C 6.078125 -0.125 5.082031 0.203125 3.90625 0.203125 C 2.414062 0.203125 1.132812 -0.113281 0.0625 -0.75 L 0.828125 -2.5625 C 1.679688 -1.769531 2.640625 -1.375 3.703125 -1.375 C 4.253906 -1.375 4.726562 -1.523438 5.125 -1.828125 C 5.519531 -2.140625 5.71875 -2.566406 5.71875 -3.109375 C 5.71875 -3.503906 5.585938 -3.851562 5.328125 -4.15625 C 5.066406 -4.457031 4.742188 -4.695312 4.359375 -4.875 C 3.972656 -5.050781 3.550781 -5.253906 3.09375 -5.484375 C 2.632812 -5.722656 2.210938 -5.960938 1.828125 -6.203125 C 1.441406 -6.441406 1.113281 -6.78125 0.84375 -7.21875 C 0.582031 -7.664062 0.453125 -8.175781 0.453125 -8.75 C 0.453125 -9.875 0.84375 -10.722656 1.625 -11.296875 C 2.40625 -11.878906 3.445312 -12.171875 4.75 -12.171875 C 5.238281 -12.171875 5.800781 -12.070312 6.4375 -11.875 C 7.082031 -11.675781 7.578125 -11.445312 7.921875 -11.1875 L 6.796875 -9.78125 C 6.179688 -10.320312 5.425781 -10.59375 4.53125 -10.59375 C 4.070312 -10.59375 3.675781 -10.472656 3.34375 -10.234375 C 3.007812 -9.992188 2.84375 -9.660156 2.84375 -9.234375 C 2.84375 -8.847656 2.972656 -8.507812 3.234375 -8.21875 C 3.492188 -7.925781 3.816406 -7.691406 4.203125 -7.515625 C 4.597656 -7.347656 5.023438 -7.144531 5.484375 -6.90625 C 5.941406 -6.664062 6.363281 -6.421875 6.75 -6.171875 C 7.132812 -5.929688 7.457031 -5.582031 7.71875 -5.125 C 7.976562 -4.664062 8.109375 -4.128906 8.109375 -3.515625 Z M 8.109375 -3.515625 "></path></g></g></g></g><g fill="#ffffff" fill-opacity="1"><g transform="translate(9.201382, 16.885696)"><g><path d="M 5.34375 -0.1875 C 4.613281 0.0390625 3.972656 0.15625 3.421875 0.15625 C 2.710938 0.15625 2.191406 -0.00390625 1.859375 -0.328125 C 1.535156 -0.648438 1.375 -1.171875 1.375 -1.890625 L 1.375 -6.84375 L 0.03125 -6.84375 L 0.03125 -7.921875 C 0.445312 -7.929688 0.816406 -8.078125 1.140625 -8.359375 C 1.472656 -8.640625 1.71875 -8.957031 1.875 -9.3125 C 2.039062 -9.675781 2.175781 -10.070312 2.28125 -10.5 L 3.703125 -10.5 C 3.484375 -9.570312 3.375 -8.78125 3.375 -8.125 L 5.34375 -8.125 L 4.953125 -6.84375 L 3.375 -6.84375 L 3.375 -2.34375 C 3.375 -1.613281 3.601562 -1.25 4.0625 -1.25 C 4.3125 -1.25 4.664062 -1.300781 5.125 -1.40625 Z M 5.34375 -0.1875 "></path></g></g></g><g fill="#ffffff" fill-opacity="1"><g transform="translate(14.548754, 16.885696)"><g><path d="M 8.4375 -0.3125 C 8.34375 -0.289062 8.191406 -0.242188 7.984375 -0.171875 C 7.785156 -0.109375 7.617188 -0.0546875 7.484375 -0.015625 C 7.359375 0.015625 7.203125 0.046875 7.015625 0.078125 C 6.835938 0.109375 6.679688 0.125 6.546875 0.125 C 6.210938 0.125 5.929688 0.0234375 5.703125 -0.171875 C 5.472656 -0.367188 5.320312 -0.632812 5.25 -0.96875 C 4.707031 -0.195312 3.890625 0.1875 2.796875 0.1875 C 2.128906 0.1875 1.578125 0 1.140625 -0.375 C 0.703125 -0.75 0.484375 -1.257812 0.484375 -1.90625 C 0.484375 -2.476562 0.617188 -2.957031 0.890625 -3.34375 C 1.171875 -3.738281 1.546875 -4.03125 2.015625 -4.21875 C 2.484375 -4.414062 2.953125 -4.554688 3.421875 -4.640625 C 3.890625 -4.722656 4.390625 -4.765625 4.921875 -4.765625 L 4.921875 -5.828125 C 4.921875 -6.253906 4.828125 -6.550781 4.640625 -6.71875 C 4.460938 -6.882812 4.164062 -6.96875 3.75 -6.96875 C 3.164062 -6.96875 2.46875 -6.648438 1.65625 -6.015625 L 0.84375 -7.3125 C 1.84375 -7.988281 2.945312 -8.328125 4.15625 -8.328125 C 5.03125 -8.328125 5.703125 -8.101562 6.171875 -7.65625 C 6.648438 -7.207031 6.890625 -6.546875 6.890625 -5.671875 L 6.890625 -2.125 C 6.890625 -1.582031 7.019531 -1.3125 7.28125 -1.3125 C 7.363281 -1.3125 7.632812 -1.375 8.09375 -1.5 Z M 4.921875 -3.046875 L 4.921875 -3.421875 C 3.328125 -3.421875 2.53125 -2.984375 2.53125 -2.109375 C 2.53125 -1.867188 2.625 -1.675781 2.8125 -1.53125 C 3.007812 -1.394531 3.234375 -1.328125 3.484375 -1.328125 C 3.910156 -1.328125 4.253906 -1.503906 4.515625 -1.859375 C 4.785156 -2.210938 4.921875 -2.609375 4.921875 -3.046875 Z M 4.921875 -3.046875 "></path></g></g></g><g fill="#ffffff" fill-opacity="1"><g transform="translate(22.627048, 16.885696)"><g><path d="M 6.671875 -12.3125 L 6.15625 -11 C 5.8125 -11.238281 5.472656 -11.359375 5.140625 -11.359375 C 4.742188 -11.359375 4.414062 -11.265625 4.15625 -11.078125 C 3.90625 -10.898438 3.722656 -10.640625 3.609375 -10.296875 C 3.503906 -9.960938 3.4375 -9.65625 3.40625 -9.375 C 3.375 -9.09375 3.359375 -8.753906 3.359375 -8.359375 L 3.359375 -8.125 L 5.34375 -8.125 L 4.96875 -6.828125 L 3.359375 -6.828125 L 3.359375 0.015625 L 1.390625 0.015625 L 1.390625 -6.828125 L 0.046875 -6.828125 L 0.046875 -7.984375 C 0.867188 -7.984375 1.328125 -8.222656 1.421875 -8.703125 C 1.453125 -8.835938 1.5 -9.082031 1.5625 -9.4375 C 1.632812 -9.800781 1.6875 -10.046875 1.71875 -10.171875 C 1.757812 -10.296875 1.828125 -10.476562 1.921875 -10.71875 C 2.015625 -10.96875 2.128906 -11.179688 2.265625 -11.359375 C 2.410156 -11.535156 2.59375 -11.726562 2.8125 -11.9375 C 3.382812 -12.4375 4.132812 -12.6875 5.0625 -12.6875 C 5.726562 -12.6875 6.265625 -12.5625 6.671875 -12.3125 Z M 6.671875 -12.3125 "></path></g></g></g><g fill="#ffffff" fill-opacity="1"><g transform="translate(27.336661, 16.885696)"><g><path d="M 6.671875 -12.3125 L 6.15625 -11 C 5.8125 -11.238281 5.472656 -11.359375 5.140625 -11.359375 C 4.742188 -11.359375 4.414062 -11.265625 4.15625 -11.078125 C 3.90625 -10.898438 3.722656 -10.640625 3.609375 -10.296875 C 3.503906 -9.960938 3.4375 -9.65625 3.40625 -9.375 C 3.375 -9.09375 3.359375 -8.753906 3.359375 -8.359375 L 3.359375 -8.125 L 5.34375 -8.125 L 4.96875 -6.828125 L 3.359375 -6.828125 L 3.359375 0.015625 L 1.390625 0.015625 L 1.390625 -6.828125 L 0.046875 -6.828125 L 0.046875 -7.984375 C 0.867188 -7.984375 1.328125 -8.222656 1.421875 -8.703125 C 1.453125 -8.835938 1.5 -9.082031 1.5625 -9.4375 C 1.632812 -9.800781 1.6875 -10.046875 1.71875 -10.171875 C 1.757812 -10.296875 1.828125 -10.476562 1.921875 -10.71875 C 2.015625 -10.96875 2.128906 -11.179688 2.265625 -11.359375 C 2.410156 -11.535156 2.59375 -11.726562 2.8125 -11.9375 C 3.382812 -12.4375 4.132812 -12.6875 5.0625 -12.6875 C 5.726562 -12.6875 6.265625 -12.5625 6.671875 -12.3125 Z M 6.671875 -12.3125 "></path></g></g></g><g fill="#ffffff" fill-opacity="1"><g transform="translate(32.046272, 16.885696)"><g><path d="M 3.03125 0 L 1.0625 0 L 1.0625 -7.25 C 1.0625 -7.257812 1.046875 -7.328125 1.015625 -7.453125 C 0.992188 -7.585938 0.96875 -7.726562 0.9375 -7.875 C 0.90625 -8.03125 0.890625 -8.113281 0.890625 -8.125 L 3.03125 -8.125 Z M 2.921875 -11.984375 C 3.171875 -11.734375 3.296875 -11.429688 3.296875 -11.078125 C 3.296875 -10.734375 3.171875 -10.4375 2.921875 -10.1875 C 2.679688 -9.945312 2.390625 -9.828125 2.046875 -9.828125 C 1.691406 -9.828125 1.390625 -9.945312 1.140625 -10.1875 C 0.898438 -10.4375 0.78125 -10.734375 0.78125 -11.078125 C 0.78125 -11.429688 0.898438 -11.734375 1.140625 -11.984375 C 1.390625 -12.242188 1.691406 -12.375 2.046875 -12.375 C 2.390625 -12.375 2.679688 -12.242188 2.921875 -11.984375 Z M 2.921875 -11.984375 "></path></g></g></g><g fill="#ffffff" fill-opacity="1"><g transform="translate(36.150831, 16.885696)"><g><path d="M 7.953125 0 L 5.96875 0 L 5.96875 -5.296875 C 5.96875 -5.609375 5.953125 -5.859375 5.921875 -6.046875 C 5.890625 -6.234375 5.789062 -6.40625 5.625 -6.5625 C 5.457031 -6.726562 5.226562 -6.8125 4.9375 -6.8125 C 4.695312 -6.8125 4.390625 -6.707031 4.015625 -6.5 C 3.640625 -6.300781 3.359375 -6.101562 3.171875 -5.90625 L 3.171875 0 L 1.203125 0 L 1.203125 -5.828125 C 1.203125 -6.910156 1.035156 -7.65625 0.703125 -8.0625 L 2.765625 -8.3125 C 2.898438 -8.03125 2.992188 -7.679688 3.046875 -7.265625 C 3.847656 -7.992188 4.675781 -8.359375 5.53125 -8.359375 C 6.414062 -8.359375 7.039062 -8.113281 7.40625 -7.625 C 7.769531 -7.132812 7.953125 -6.425781 7.953125 -5.5 Z M 7.953125 0 "></path></g></g></g><g fill="#ffffff" fill-opacity="1"><g transform="translate(45.095825, 16.885696)"><g><path d="M 4.0625 -1.484375 L 4.8125 -1.484375 C 5.132812 -1.484375 5.410156 -1.472656 5.640625 -1.453125 C 5.867188 -1.441406 6.125 -1.398438 6.40625 -1.328125 C 6.695312 -1.265625 6.929688 -1.164062 7.109375 -1.03125 C 7.285156 -0.90625 7.429688 -0.722656 7.546875 -0.484375 C 7.671875 -0.242188 7.734375 0.0390625 7.734375 0.375 C 7.734375 1.113281 7.492188 1.75 7.015625 2.28125 C 6.546875 2.820312 5.984375 3.203125 5.328125 3.421875 C 4.679688 3.648438 3.992188 3.765625 3.265625 3.765625 C 2.898438 3.765625 2.546875 3.734375 2.203125 3.671875 C 1.859375 3.609375 1.507812 3.507812 1.15625 3.375 C 0.8125 3.238281 0.53125 3.03125 0.3125 2.75 C 0.101562 2.46875 0 2.125 0 1.71875 C 0 1.257812 0.132812 0.84375 0.40625 0.46875 C 0.6875 0.09375 1.03125 -0.1875 1.4375 -0.375 L 1.4375 -0.4375 C 1.238281 -0.5 1.0625 -0.632812 0.90625 -0.84375 C 0.757812 -1.0625 0.6875 -1.296875 0.6875 -1.546875 C 0.6875 -1.640625 0.742188 -1.742188 0.859375 -1.859375 C 0.972656 -1.972656 1.132812 -2.144531 1.34375 -2.375 C 1.5625 -2.601562 1.757812 -2.863281 1.9375 -3.15625 C 0.957031 -3.695312 0.46875 -4.5 0.46875 -5.5625 C 0.46875 -6.394531 0.769531 -7.070312 1.375 -7.59375 C 1.988281 -8.113281 2.71875 -8.375 3.5625 -8.375 C 3.800781 -8.375 4.101562 -8.332031 4.46875 -8.25 C 4.84375 -8.164062 5.125 -8.125 5.3125 -8.125 C 5.863281 -8.125 6.835938 -8.1875 8.234375 -8.3125 L 7.875 -6.953125 L 6.484375 -6.953125 C 6.410156 -6.953125 6.285156 -6.976562 6.109375 -7.03125 C 6.453125 -6.582031 6.625 -6.097656 6.625 -5.578125 C 6.625 -4.734375 6.316406 -4.050781 5.703125 -3.53125 C 5.085938 -3.007812 4.347656 -2.75 3.484375 -2.75 C 3.273438 -2.75 3.09375 -2.675781 2.9375 -2.53125 C 2.789062 -2.394531 2.71875 -2.222656 2.71875 -2.015625 C 2.71875 -1.660156 3.164062 -1.484375 4.0625 -1.484375 Z M 4.28125 0 L 2.796875 0 C 2.566406 0.125 2.375 0.3125 2.21875 0.5625 C 2.070312 0.820312 2 1.082031 2 1.34375 C 2 1.6875 2.15625 1.941406 2.46875 2.109375 C 2.78125 2.273438 3.128906 2.359375 3.515625 2.359375 C 3.796875 2.359375 4.0625 2.332031 4.3125 2.28125 C 4.5625 2.238281 4.8125 2.164062 5.0625 2.0625 C 5.3125 1.957031 5.507812 1.800781 5.65625 1.59375 C 5.800781 1.382812 5.875 1.125 5.875 0.8125 C 5.875 0.269531 5.34375 0 4.28125 0 Z M 2.796875 -4.359375 C 2.984375 -4.046875 3.234375 -3.890625 3.546875 -3.890625 C 3.867188 -3.890625 4.125 -4.039062 4.3125 -4.34375 C 4.5 -4.65625 4.59375 -5.046875 4.59375 -5.515625 C 4.59375 -5.984375 4.5 -6.375 4.3125 -6.6875 C 4.125 -7 3.867188 -7.15625 3.546875 -7.15625 C 3.234375 -7.15625 2.984375 -7 2.796875 -6.6875 C 2.609375 -6.375 2.515625 -5.984375 2.515625 -5.515625 C 2.515625 -5.046875 2.609375 -4.660156 2.796875 -4.359375 Z M 2.796875 -4.359375 "></path></g></g></g><g clip-path="url(#20e66d03d2)"><g fill="#ffffff" fill-opacity="1"><g transform="translate(0.763327, 33.158829)"><g><path d="M 8.109375 -3.515625 C 8.109375 -2.359375 7.703125 -1.445312 6.890625 -0.78125 C 6.078125 -0.125 5.082031 0.203125 3.90625 0.203125 C 2.414062 0.203125 1.132812 -0.113281 0.0625 -0.75 L 0.828125 -2.5625 C 1.679688 -1.769531 2.640625 -1.375 3.703125 -1.375 C 4.253906 -1.375 4.726562 -1.523438 5.125 -1.828125 C 5.519531 -2.140625 5.71875 -2.566406 5.71875 -3.109375 C 5.71875 -3.503906 5.585938 -3.851562 5.328125 -4.15625 C 5.066406 -4.457031 4.742188 -4.695312 4.359375 -4.875 C 3.972656 -5.050781 3.550781 -5.253906 3.09375 -5.484375 C 2.632812 -5.722656 2.210938 -5.960938 1.828125 -6.203125 C 1.441406 -6.441406 1.113281 -6.78125 0.84375 -7.21875 C 0.582031 -7.664062 0.453125 -8.175781 0.453125 -8.75 C 0.453125 -9.875 0.84375 -10.722656 1.625 -11.296875 C 2.40625 -11.878906 3.445312 -12.171875 4.75 -12.171875 C 5.238281 -12.171875 5.800781 -12.070312 6.4375 -11.875 C 7.082031 -11.675781 7.578125 -11.445312 7.921875 -11.1875 L 6.796875 -9.78125 C 6.179688 -10.320312 5.425781 -10.59375 4.53125 -10.59375 C 4.070312 -10.59375 3.675781 -10.472656 3.34375 -10.234375 C 3.007812 -9.992188 2.84375 -9.660156 2.84375 -9.234375 C 2.84375 -8.847656 2.972656 -8.507812 3.234375 -8.21875 C 3.492188 -7.925781 3.816406 -7.691406 4.203125 -7.515625 C 4.597656 -7.347656 5.023438 -7.144531 5.484375 -6.90625 C 5.941406 -6.664062 6.363281 -6.421875 6.75 -6.171875 C 7.132812 -5.929688 7.457031 -5.582031 7.71875 -5.125 C 7.976562 -4.664062 8.109375 -4.128906 8.109375 -3.515625 Z M 8.109375 -3.515625 "></path></g></g></g></g><g fill="#ffffff" fill-opacity="1"><g transform="translate(9.201382, 33.158829)"><g><path d="M 0.421875 -4.078125 C 0.421875 -5.273438 0.78125 -6.285156 1.5 -7.109375 C 2.226562 -7.929688 3.191406 -8.34375 4.390625 -8.34375 C 5.585938 -8.34375 6.546875 -7.929688 7.265625 -7.109375 C 7.984375 -6.296875 8.34375 -5.28125 8.34375 -4.0625 C 8.34375 -2.851562 7.984375 -1.835938 7.265625 -1.015625 C 6.546875 -0.203125 5.585938 0.203125 4.390625 0.203125 C 3.179688 0.203125 2.21875 -0.203125 1.5 -1.015625 C 0.78125 -1.835938 0.421875 -2.859375 0.421875 -4.078125 Z M 4.390625 -7 C 3.929688 -7 3.554688 -6.820312 3.265625 -6.46875 C 2.972656 -6.125 2.785156 -5.75 2.703125 -5.34375 C 2.617188 -4.945312 2.578125 -4.519531 2.578125 -4.0625 C 2.578125 -3.601562 2.617188 -3.171875 2.703125 -2.765625 C 2.785156 -2.359375 2.972656 -1.976562 3.265625 -1.625 C 3.554688 -1.28125 3.929688 -1.109375 4.390625 -1.109375 C 4.742188 -1.109375 5.046875 -1.203125 5.296875 -1.390625 C 5.554688 -1.578125 5.742188 -1.828125 5.859375 -2.140625 C 5.972656 -2.460938 6.054688 -2.773438 6.109375 -3.078125 C 6.160156 -3.378906 6.1875 -3.703125 6.1875 -4.046875 C 6.1875 -4.398438 6.160156 -4.726562 6.109375 -5.03125 C 6.054688 -5.34375 5.972656 -5.65625 5.859375 -5.96875 C 5.742188 -6.289062 5.554688 -6.539062 5.296875 -6.71875 C 5.046875 -6.90625 4.742188 -7 4.390625 -7 Z M 4.390625 -7 "></path></g></g></g><g fill="#ffffff" fill-opacity="1"><g transform="translate(17.966494, 33.158829)"><g><path d="M 3.03125 0 L 1.03125 0 L 1.03125 -11.703125 C 1.03125 -11.710938 1.015625 -11.78125 0.984375 -11.90625 C 0.960938 -12.039062 0.929688 -12.179688 0.890625 -12.328125 C 0.859375 -12.484375 0.84375 -12.566406 0.84375 -12.578125 L 3.03125 -12.578125 Z M 3.03125 0 "></path></g></g></g><g fill="#ffffff" fill-opacity="1"><g transform="translate(22.071052, 33.158829)"><g><path d="M 9.390625 -0.3125 C 9.316406 -0.289062 9.125 -0.234375 8.8125 -0.140625 C 8.507812 -0.046875 8.253906 0.0195312 8.046875 0.0625 C 7.847656 0.101562 7.65625 0.125 7.46875 0.125 C 7.144531 0.125 6.867188 0.0234375 6.640625 -0.171875 C 6.410156 -0.367188 6.265625 -0.632812 6.203125 -0.96875 C 5.421875 -0.164062 4.523438 0.234375 3.515625 0.234375 C 2.617188 0.234375 1.988281 -0.015625 1.625 -0.515625 C 1.257812 -1.015625 1.078125 -1.722656 1.078125 -2.640625 L 1.078125 -7.25 L 0.90625 -8.125 L 3.078125 -8.125 L 3.078125 -2.984375 C 3.078125 -1.890625 3.429688 -1.34375 4.140625 -1.34375 C 4.617188 -1.34375 5.023438 -1.488281 5.359375 -1.78125 C 5.703125 -2.070312 5.875 -2.453125 5.875 -2.921875 L 5.875 -7.25 C 5.875 -7.257812 5.859375 -7.328125 5.828125 -7.453125 C 5.796875 -7.585938 5.757812 -7.726562 5.71875 -7.875 C 5.6875 -8.019531 5.671875 -8.101562 5.671875 -8.125 L 7.875 -8.125 L 7.875 -2.15625 C 7.875 -1.59375 8.007812 -1.3125 8.28125 -1.3125 C 8.300781 -1.3125 8.554688 -1.375 9.046875 -1.5 Z M 9.390625 -0.3125 "></path></g></g></g><g fill="#ffffff" fill-opacity="1"><g transform="translate(31.114162, 33.158829)"><g><path d="M 5.34375 -0.1875 C 4.613281 0.0390625 3.972656 0.15625 3.421875 0.15625 C 2.710938 0.15625 2.191406 -0.00390625 1.859375 -0.328125 C 1.535156 -0.648438 1.375 -1.171875 1.375 -1.890625 L 1.375 -6.84375 L 0.03125 -6.84375 L 0.03125 -7.921875 C 0.445312 -7.929688 0.816406 -8.078125 1.140625 -8.359375 C 1.472656 -8.640625 1.71875 -8.957031 1.875 -9.3125 C 2.039062 -9.675781 2.175781 -10.070312 2.28125 -10.5 L 3.703125 -10.5 C 3.484375 -9.570312 3.375 -8.78125 3.375 -8.125 L 5.34375 -8.125 L 4.953125 -6.84375 L 3.375 -6.84375 L 3.375 -2.34375 C 3.375 -1.613281 3.601562 -1.25 4.0625 -1.25 C 4.3125 -1.25 4.664062 -1.300781 5.125 -1.40625 Z M 5.34375 -0.1875 "></path></g></g></g><g fill="#ffffff" fill-opacity="1"><g transform="translate(36.461535, 33.158829)"><g><path d="M 3.03125 0 L 1.0625 0 L 1.0625 -7.25 C 1.0625 -7.257812 1.046875 -7.328125 1.015625 -7.453125 C 0.992188 -7.585938 0.96875 -7.726562 0.9375 -7.875 C 0.90625 -8.03125 0.890625 -8.113281 0.890625 -8.125 L 3.03125 -8.125 Z M 2.921875 -11.984375 C 3.171875 -11.734375 3.296875 -11.429688 3.296875 -11.078125 C 3.296875 -10.734375 3.171875 -10.4375 2.921875 -10.1875 C 2.679688 -9.945312 2.390625 -9.828125 2.046875 -9.828125 C 1.691406 -9.828125 1.390625 -9.945312 1.140625 -10.1875 C 0.898438 -10.4375 0.78125 -10.734375 0.78125 -11.078125 C 0.78125 -11.429688 0.898438 -11.734375 1.140625 -11.984375 C 1.390625 -12.242188 1.691406 -12.375 2.046875 -12.375 C 2.390625 -12.375 2.679688 -12.242188 2.921875 -11.984375 Z M 2.921875 -11.984375 "></path></g></g></g><g fill="#ffffff" fill-opacity="1"><g transform="translate(40.566093, 33.158829)"><g><path d="M 0.421875 -4.078125 C 0.421875 -5.273438 0.78125 -6.285156 1.5 -7.109375 C 2.226562 -7.929688 3.191406 -8.34375 4.390625 -8.34375 C 5.585938 -8.34375 6.546875 -7.929688 7.265625 -7.109375 C 7.984375 -6.296875 8.34375 -5.28125 8.34375 -4.0625 C 8.34375 -2.851562 7.984375 -1.835938 7.265625 -1.015625 C 6.546875 -0.203125 5.585938 0.203125 4.390625 0.203125 C 3.179688 0.203125 2.21875 -0.203125 1.5 -1.015625 C 0.78125 -1.835938 0.421875 -2.859375 0.421875 -4.078125 Z M 4.390625 -7 C 3.929688 -7 3.554688 -6.820312 3.265625 -6.46875 C 2.972656 -6.125 2.785156 -5.75 2.703125 -5.34375 C 2.617188 -4.945312 2.578125 -4.519531 2.578125 -4.0625 C 2.578125 -3.601562 2.617188 -3.171875 2.703125 -2.765625 C 2.785156 -2.359375 2.972656 -1.976562 3.265625 -1.625 C 3.554688 -1.28125 3.929688 -1.109375 4.390625 -1.109375 C 4.742188 -1.109375 5.046875 -1.203125 5.296875 -1.390625 C 5.554688 -1.578125 5.742188 -1.828125 5.859375 -2.140625 C 5.972656 -2.460938 6.054688 -2.773438 6.109375 -3.078125 C 6.160156 -3.378906 6.1875 -3.703125 6.1875 -4.046875 C 6.1875 -4.398438 6.160156 -4.726562 6.109375 -5.03125 C 6.054688 -5.34375 5.972656 -5.65625 5.859375 -5.96875 C 5.742188 -6.289062 5.554688 -6.539062 5.296875 -6.71875 C 5.046875 -6.90625 4.742188 -7 4.390625 -7 Z M 4.390625 -7 "></path></g></g></g><g fill="#ffffff" fill-opacity="1"><g transform="translate(49.331205, 33.158829)"><g><path d="M 7.953125 0 L 5.96875 0 L 5.96875 -5.296875 C 5.96875 -5.609375 5.953125 -5.859375 5.921875 -6.046875 C 5.890625 -6.234375 5.789062 -6.40625 5.625 -6.5625 C 5.457031 -6.726562 5.226562 -6.8125 4.9375 -6.8125 C 4.695312 -6.8125 4.390625 -6.707031 4.015625 -6.5 C 3.640625 -6.300781 3.359375 -6.101562 3.171875 -5.90625 L 3.171875 0 L 1.203125 0 L 1.203125 -5.828125 C 1.203125 -6.910156 1.035156 -7.65625 0.703125 -8.0625 L 2.765625 -8.3125 C 2.898438 -8.03125 2.992188 -7.679688 3.046875 -7.265625 C 3.847656 -7.992188 4.675781 -8.359375 5.53125 -8.359375 C 6.414062 -8.359375 7.039062 -8.113281 7.40625 -7.625 C 7.769531 -7.132812 7.953125 -6.425781 7.953125 -5.5 Z M 7.953125 0 "></path></g></g></g><g fill="#ffffff" fill-opacity="1"><g transform="translate(58.276196, 33.158829)"><g><path d="M 6.421875 -2.53125 C 6.421875 -1.695312 6.101562 -1.023438 5.46875 -0.515625 C 4.84375 -0.015625 4.097656 0.234375 3.234375 0.234375 C 2.273438 0.234375 1.375 0 0.53125 -0.46875 L 1.234375 -1.8125 C 1.972656 -1.375 2.585938 -1.15625 3.078125 -1.15625 C 3.421875 -1.15625 3.707031 -1.242188 3.9375 -1.421875 C 4.175781 -1.609375 4.296875 -1.867188 4.296875 -2.203125 C 4.296875 -2.503906 4.171875 -2.75 3.921875 -2.9375 C 3.679688 -3.132812 3.382812 -3.289062 3.03125 -3.40625 C 2.6875 -3.53125 2.335938 -3.671875 1.984375 -3.828125 C 1.628906 -3.992188 1.328125 -4.238281 1.078125 -4.5625 C 0.835938 -4.894531 0.71875 -5.304688 0.71875 -5.796875 C 0.71875 -6.609375 1.03125 -7.234375 1.65625 -7.671875 C 2.28125 -8.117188 3.015625 -8.34375 3.859375 -8.34375 C 4.785156 -8.34375 5.585938 -8.175781 6.265625 -7.84375 L 5.578125 -6.46875 C 5.097656 -6.832031 4.554688 -7.015625 3.953125 -7.015625 C 3.648438 -7.015625 3.390625 -6.941406 3.171875 -6.796875 C 2.953125 -6.648438 2.84375 -6.4375 2.84375 -6.15625 C 2.84375 -5.875 2.960938 -5.644531 3.203125 -5.46875 C 3.453125 -5.300781 3.753906 -5.15625 4.109375 -5.03125 C 4.460938 -4.90625 4.8125 -4.757812 5.15625 -4.59375 C 5.507812 -4.4375 5.804688 -4.1875 6.046875 -3.84375 C 6.296875 -3.5 6.421875 -3.0625 6.421875 -2.53125 Z M 6.421875 -2.53125 "></path></g></g></g><g clip-path="url(#5c63b2def2)"><g fill="#000000" fill-opacity="1"><g transform="translate(0.474212, 16.596582)"><g><path d="M 8.109375 -3.515625 C 8.109375 -2.359375 7.703125 -1.445312 6.890625 -0.78125 C 6.078125 -0.125 5.082031 0.203125 3.90625 0.203125 C 2.414062 0.203125 1.132812 -0.113281 0.0625 -0.75 L 0.828125 -2.5625 C 1.679688 -1.769531 2.640625 -1.375 3.703125 -1.375 C 4.253906 -1.375 4.726562 -1.523438 5.125 -1.828125 C 5.519531 -2.140625 5.71875 -2.566406 5.71875 -3.109375 C 5.71875 -3.503906 5.585938 -3.851562 5.328125 -4.15625 C 5.066406 -4.457031 4.742188 -4.695312 4.359375 -4.875 C 3.972656 -5.050781 3.550781 -5.253906 3.09375 -5.484375 C 2.632812 -5.722656 2.210938 -5.960938 1.828125 -6.203125 C 1.441406 -6.441406 1.113281 -6.78125 0.84375 -7.21875 C 0.582031 -7.664062 0.453125 -8.175781 0.453125 -8.75 C 0.453125 -9.875 0.84375 -10.722656 1.625 -11.296875 C 2.40625 -11.878906 3.445312 -12.171875 4.75 -12.171875 C 5.238281 -12.171875 5.800781 -12.070312 6.4375 -11.875 C 7.082031 -11.675781 7.578125 -11.445312 7.921875 -11.1875 L 6.796875 -9.78125 C 6.179688 -10.320312 5.425781 -10.59375 4.53125 -10.59375 C 4.070312 -10.59375 3.675781 -10.472656 3.34375 -10.234375 C 3.007812 -9.992188 2.84375 -9.660156 2.84375 -9.234375 C 2.84375 -8.847656 2.972656 -8.507812 3.234375 -8.21875 C 3.492188 -7.925781 3.816406 -7.691406 4.203125 -7.515625 C 4.597656 -7.347656 5.023438 -7.144531 5.484375 -6.90625 C 5.941406 -6.664062 6.363281 -6.421875 6.75 -6.171875 C 7.132812 -5.929688 7.457031 -5.582031 7.71875 -5.125 C 7.976562 -4.664062 8.109375 -4.128906 8.109375 -3.515625 Z M 8.109375 -3.515625 "></path></g></g></g></g><g fill="#000000" fill-opacity="1"><g transform="translate(8.912267, 16.596582)"><g><path d="M 5.34375 -0.1875 C 4.613281 0.0390625 3.972656 0.15625 3.421875 0.15625 C 2.710938 0.15625 2.191406 -0.00390625 1.859375 -0.328125 C 1.535156 -0.648438 1.375 -1.171875 1.375 -1.890625 L 1.375 -6.84375 L 0.03125 -6.84375 L 0.03125 -7.921875 C 0.445312 -7.929688 0.816406 -8.078125 1.140625 -8.359375 C 1.472656 -8.640625 1.71875 -8.957031 1.875 -9.3125 C 2.039062 -9.675781 2.175781 -10.070312 2.28125 -10.5 L 3.703125 -10.5 C 3.484375 -9.570312 3.375 -8.78125 3.375 -8.125 L 5.34375 -8.125 L 4.953125 -6.84375 L 3.375 -6.84375 L 3.375 -2.34375 C 3.375 -1.613281 3.601562 -1.25 4.0625 -1.25 C 4.3125 -1.25 4.664062 -1.300781 5.125 -1.40625 Z M 5.34375 -0.1875 "></path></g></g></g><g fill="#000000" fill-opacity="1"><g transform="translate(14.25964, 16.596582)"><g><path d="M 8.4375 -0.3125 C 8.34375 -0.289062 8.191406 -0.242188 7.984375 -0.171875 C 7.785156 -0.109375 7.617188 -0.0546875 7.484375 -0.015625 C 7.359375 0.015625 7.203125 0.046875 7.015625 0.078125 C 6.835938 0.109375 6.679688 0.125 6.546875 0.125 C 6.210938 0.125 5.929688 0.0234375 5.703125 -0.171875 C 5.472656 -0.367188 5.320312 -0.632812 5.25 -0.96875 C 4.707031 -0.195312 3.890625 0.1875 2.796875 0.1875 C 2.128906 0.1875 1.578125 0 1.140625 -0.375 C 0.703125 -0.75 0.484375 -1.257812 0.484375 -1.90625 C 0.484375 -2.476562 0.617188 -2.957031 0.890625 -3.34375 C 1.171875 -3.738281 1.546875 -4.03125 2.015625 -4.21875 C 2.484375 -4.414062 2.953125 -4.554688 3.421875 -4.640625 C 3.890625 -4.722656 4.390625 -4.765625 4.921875 -4.765625 L 4.921875 -5.828125 C 4.921875 -6.253906 4.828125 -6.550781 4.640625 -6.71875 C 4.460938 -6.882812 4.164062 -6.96875 3.75 -6.96875 C 3.164062 -6.96875 2.46875 -6.648438 1.65625 -6.015625 L 0.84375 -7.3125 C 1.84375 -7.988281 2.945312 -8.328125 4.15625 -8.328125 C 5.03125 -8.328125 5.703125 -8.101562 6.171875 -7.65625 C 6.648438 -7.207031 6.890625 -6.546875 6.890625 -5.671875 L 6.890625 -2.125 C 6.890625 -1.582031 7.019531 -1.3125 7.28125 -1.3125 C 7.363281 -1.3125 7.632812 -1.375 8.09375 -1.5 Z M 4.921875 -3.046875 L 4.921875 -3.421875 C 3.328125 -3.421875 2.53125 -2.984375 2.53125 -2.109375 C 2.53125 -1.867188 2.625 -1.675781 2.8125 -1.53125 C 3.007812 -1.394531 3.234375 -1.328125 3.484375 -1.328125 C 3.910156 -1.328125 4.253906 -1.503906 4.515625 -1.859375 C 4.785156 -2.210938 4.921875 -2.609375 4.921875 -3.046875 Z M 4.921875 -3.046875 "></path></g></g></g><g fill="#000000" fill-opacity="1"><g transform="translate(22.337933, 16.596582)"><g><path d="M 6.671875 -12.3125 L 6.15625 -11 C 5.8125 -11.238281 5.472656 -11.359375 5.140625 -11.359375 C 4.742188 -11.359375 4.414062 -11.265625 4.15625 -11.078125 C 3.90625 -10.898438 3.722656 -10.640625 3.609375 -10.296875 C 3.503906 -9.960938 3.4375 -9.65625 3.40625 -9.375 C 3.375 -9.09375 3.359375 -8.753906 3.359375 -8.359375 L 3.359375 -8.125 L 5.34375 -8.125 L 4.96875 -6.828125 L 3.359375 -6.828125 L 3.359375 0.015625 L 1.390625 0.015625 L 1.390625 -6.828125 L 0.046875 -6.828125 L 0.046875 -7.984375 C 0.867188 -7.984375 1.328125 -8.222656 1.421875 -8.703125 C 1.453125 -8.835938 1.5 -9.082031 1.5625 -9.4375 C 1.632812 -9.800781 1.6875 -10.046875 1.71875 -10.171875 C 1.757812 -10.296875 1.828125 -10.476562 1.921875 -10.71875 C 2.015625 -10.96875 2.128906 -11.179688 2.265625 -11.359375 C 2.410156 -11.535156 2.59375 -11.726562 2.8125 -11.9375 C 3.382812 -12.4375 4.132812 -12.6875 5.0625 -12.6875 C 5.726562 -12.6875 6.265625 -12.5625 6.671875 -12.3125 Z M 6.671875 -12.3125 "></path></g></g></g><g fill="#000000" fill-opacity="1"><g transform="translate(27.047547, 16.596582)"><g><path d="M 6.671875 -12.3125 L 6.15625 -11 C 5.8125 -11.238281 5.472656 -11.359375 5.140625 -11.359375 C 4.742188 -11.359375 4.414062 -11.265625 4.15625 -11.078125 C 3.90625 -10.898438 3.722656 -10.640625 3.609375 -10.296875 C 3.503906 -9.960938 3.4375 -9.65625 3.40625 -9.375 C 3.375 -9.09375 3.359375 -8.753906 3.359375 -8.359375 L 3.359375 -8.125 L 5.34375 -8.125 L 4.96875 -6.828125 L 3.359375 -6.828125 L 3.359375 0.015625 L 1.390625 0.015625 L 1.390625 -6.828125 L 0.046875 -6.828125 L 0.046875 -7.984375 C 0.867188 -7.984375 1.328125 -8.222656 1.421875 -8.703125 C 1.453125 -8.835938 1.5 -9.082031 1.5625 -9.4375 C 1.632812 -9.800781 1.6875 -10.046875 1.71875 -10.171875 C 1.757812 -10.296875 1.828125 -10.476562 1.921875 -10.71875 C 2.015625 -10.96875 2.128906 -11.179688 2.265625 -11.359375 C 2.410156 -11.535156 2.59375 -11.726562 2.8125 -11.9375 C 3.382812 -12.4375 4.132812 -12.6875 5.0625 -12.6875 C 5.726562 -12.6875 6.265625 -12.5625 6.671875 -12.3125 Z M 6.671875 -12.3125 "></path></g></g></g><g fill="#000000" fill-opacity="1"><g transform="translate(31.757158, 16.596582)"><g><path d="M 3.03125 0 L 1.0625 0 L 1.0625 -7.25 C 1.0625 -7.257812 1.046875 -7.328125 1.015625 -7.453125 C 0.992188 -7.585938 0.96875 -7.726562 0.9375 -7.875 C 0.90625 -8.03125 0.890625 -8.113281 0.890625 -8.125 L 3.03125 -8.125 Z M 2.921875 -11.984375 C 3.171875 -11.734375 3.296875 -11.429688 3.296875 -11.078125 C 3.296875 -10.734375 3.171875 -10.4375 2.921875 -10.1875 C 2.679688 -9.945312 2.390625 -9.828125 2.046875 -9.828125 C 1.691406 -9.828125 1.390625 -9.945312 1.140625 -10.1875 C 0.898438 -10.4375 0.78125 -10.734375 0.78125 -11.078125 C 0.78125 -11.429688 0.898438 -11.734375 1.140625 -11.984375 C 1.390625 -12.242188 1.691406 -12.375 2.046875 -12.375 C 2.390625 -12.375 2.679688 -12.242188 2.921875 -11.984375 Z M 2.921875 -11.984375 "></path></g></g></g><g fill="#000000" fill-opacity="1"><g transform="translate(35.861716, 16.596582)"><g><path d="M 7.953125 0 L 5.96875 0 L 5.96875 -5.296875 C 5.96875 -5.609375 5.953125 -5.859375 5.921875 -6.046875 C 5.890625 -6.234375 5.789062 -6.40625 5.625 -6.5625 C 5.457031 -6.726562 5.226562 -6.8125 4.9375 -6.8125 C 4.695312 -6.8125 4.390625 -6.707031 4.015625 -6.5 C 3.640625 -6.300781 3.359375 -6.101562 3.171875 -5.90625 L 3.171875 0 L 1.203125 0 L 1.203125 -5.828125 C 1.203125 -6.910156 1.035156 -7.65625 0.703125 -8.0625 L 2.765625 -8.3125 C 2.898438 -8.03125 2.992188 -7.679688 3.046875 -7.265625 C 3.847656 -7.992188 4.675781 -8.359375 5.53125 -8.359375 C 6.414062 -8.359375 7.039062 -8.113281 7.40625 -7.625 C 7.769531 -7.132812 7.953125 -6.425781 7.953125 -5.5 Z M 7.953125 0 "></path></g></g></g><g fill="#000000" fill-opacity="1"><g transform="translate(44.806711, 16.596582)"><g><path d="M 4.0625 -1.484375 L 4.8125 -1.484375 C 5.132812 -1.484375 5.410156 -1.472656 5.640625 -1.453125 C 5.867188 -1.441406 6.125 -1.398438 6.40625 -1.328125 C 6.695312 -1.265625 6.929688 -1.164062 7.109375 -1.03125 C 7.285156 -0.90625 7.429688 -0.722656 7.546875 -0.484375 C 7.671875 -0.242188 7.734375 0.0390625 7.734375 0.375 C 7.734375 1.113281 7.492188 1.75 7.015625 2.28125 C 6.546875 2.820312 5.984375 3.203125 5.328125 3.421875 C 4.679688 3.648438 3.992188 3.765625 3.265625 3.765625 C 2.898438 3.765625 2.546875 3.734375 2.203125 3.671875 C 1.859375 3.609375 1.507812 3.507812 1.15625 3.375 C 0.8125 3.238281 0.53125 3.03125 0.3125 2.75 C 0.101562 2.46875 0 2.125 0 1.71875 C 0 1.257812 0.132812 0.84375 0.40625 0.46875 C 0.6875 0.09375 1.03125 -0.1875 1.4375 -0.375 L 1.4375 -0.4375 C 1.238281 -0.5 1.0625 -0.632812 0.90625 -0.84375 C 0.757812 -1.0625 0.6875 -1.296875 0.6875 -1.546875 C 0.6875 -1.640625 0.742188 -1.742188 0.859375 -1.859375 C 0.972656 -1.972656 1.132812 -2.144531 1.34375 -2.375 C 1.5625 -2.601562 1.757812 -2.863281 1.9375 -3.15625 C 0.957031 -3.695312 0.46875 -4.5 0.46875 -5.5625 C 0.46875 -6.394531 0.769531 -7.070312 1.375 -7.59375 C 1.988281 -8.113281 2.71875 -8.375 3.5625 -8.375 C 3.800781 -8.375 4.101562 -8.332031 4.46875 -8.25 C 4.84375 -8.164062 5.125 -8.125 5.3125 -8.125 C 5.863281 -8.125 6.835938 -8.1875 8.234375 -8.3125 L 7.875 -6.953125 L 6.484375 -6.953125 C 6.410156 -6.953125 6.285156 -6.976562 6.109375 -7.03125 C 6.453125 -6.582031 6.625 -6.097656 6.625 -5.578125 C 6.625 -4.734375 6.316406 -4.050781 5.703125 -3.53125 C 5.085938 -3.007812 4.347656 -2.75 3.484375 -2.75 C 3.273438 -2.75 3.09375 -2.675781 2.9375 -2.53125 C 2.789062 -2.394531 2.71875 -2.222656 2.71875 -2.015625 C 2.71875 -1.660156 3.164062 -1.484375 4.0625 -1.484375 Z M 4.28125 0 L 2.796875 0 C 2.566406 0.125 2.375 0.3125 2.21875 0.5625 C 2.070312 0.820312 2 1.082031 2 1.34375 C 2 1.6875 2.15625 1.941406 2.46875 2.109375 C 2.78125 2.273438 3.128906 2.359375 3.515625 2.359375 C 3.796875 2.359375 4.0625 2.332031 4.3125 2.28125 C 4.5625 2.238281 4.8125 2.164062 5.0625 2.0625 C 5.3125 1.957031 5.507812 1.800781 5.65625 1.59375 C 5.800781 1.382812 5.875 1.125 5.875 0.8125 C 5.875 0.269531 5.34375 0 4.28125 0 Z M 2.796875 -4.359375 C 2.984375 -4.046875 3.234375 -3.890625 3.546875 -3.890625 C 3.867188 -3.890625 4.125 -4.039062 4.3125 -4.34375 C 4.5 -4.65625 4.59375 -5.046875 4.59375 -5.515625 C 4.59375 -5.984375 4.5 -6.375 4.3125 -6.6875 C 4.125 -7 3.867188 -7.15625 3.546875 -7.15625 C 3.234375 -7.15625 2.984375 -7 2.796875 -6.6875 C 2.609375 -6.375 2.515625 -5.984375 2.515625 -5.515625 C 2.515625 -5.046875 2.609375 -4.660156 2.796875 -4.359375 Z M 2.796875 -4.359375 "></path></g></g></g><g clip-path="url(#2efefd386f)"><g fill="#000000" fill-opacity="1"><g transform="translate(0.474212, 32.869714)"><g><path d="M 8.109375 -3.515625 C 8.109375 -2.359375 7.703125 -1.445312 6.890625 -0.78125 C 6.078125 -0.125 5.082031 0.203125 3.90625 0.203125 C 2.414062 0.203125 1.132812 -0.113281 0.0625 -0.75 L 0.828125 -2.5625 C 1.679688 -1.769531 2.640625 -1.375 3.703125 -1.375 C 4.253906 -1.375 4.726562 -1.523438 5.125 -1.828125 C 5.519531 -2.140625 5.71875 -2.566406 5.71875 -3.109375 C 5.71875 -3.503906 5.585938 -3.851562 5.328125 -4.15625 C 5.066406 -4.457031 4.742188 -4.695312 4.359375 -4.875 C 3.972656 -5.050781 3.550781 -5.253906 3.09375 -5.484375 C 2.632812 -5.722656 2.210938 -5.960938 1.828125 -6.203125 C 1.441406 -6.441406 1.113281 -6.78125 0.84375 -7.21875 C 0.582031 -7.664062 0.453125 -8.175781 0.453125 -8.75 C 0.453125 -9.875 0.84375 -10.722656 1.625 -11.296875 C 2.40625 -11.878906 3.445312 -12.171875 4.75 -12.171875 C 5.238281 -12.171875 5.800781 -12.070312 6.4375 -11.875 C 7.082031 -11.675781 7.578125 -11.445312 7.921875 -11.1875 L 6.796875 -9.78125 C 6.179688 -10.320312 5.425781 -10.59375 4.53125 -10.59375 C 4.070312 -10.59375 3.675781 -10.472656 3.34375 -10.234375 C 3.007812 -9.992188 2.84375 -9.660156 2.84375 -9.234375 C 2.84375 -8.847656 2.972656 -8.507812 3.234375 -8.21875 C 3.492188 -7.925781 3.816406 -7.691406 4.203125 -7.515625 C 4.597656 -7.347656 5.023438 -7.144531 5.484375 -6.90625 C 5.941406 -6.664062 6.363281 -6.421875 6.75 -6.171875 C 7.132812 -5.929688 7.457031 -5.582031 7.71875 -5.125 C 7.976562 -4.664062 8.109375 -4.128906 8.109375 -3.515625 Z M 8.109375 -3.515625 "></path></g></g></g></g><g fill="#000000" fill-opacity="1"><g transform="translate(8.912267, 32.869714)"><g><path d="M 0.421875 -4.078125 C 0.421875 -5.273438 0.78125 -6.285156 1.5 -7.109375 C 2.226562 -7.929688 3.191406 -8.34375 4.390625 -8.34375 C 5.585938 -8.34375 6.546875 -7.929688 7.265625 -7.109375 C 7.984375 -6.296875 8.34375 -5.28125 8.34375 -4.0625 C 8.34375 -2.851562 7.984375 -1.835938 7.265625 -1.015625 C 6.546875 -0.203125 5.585938 0.203125 4.390625 0.203125 C 3.179688 0.203125 2.21875 -0.203125 1.5 -1.015625 C 0.78125 -1.835938 0.421875 -2.859375 0.421875 -4.078125 Z M 4.390625 -7 C 3.929688 -7 3.554688 -6.820312 3.265625 -6.46875 C 2.972656 -6.125 2.785156 -5.75 2.703125 -5.34375 C 2.617188 -4.945312 2.578125 -4.519531 2.578125 -4.0625 C 2.578125 -3.601562 2.617188 -3.171875 2.703125 -2.765625 C 2.785156 -2.359375 2.972656 -1.976562 3.265625 -1.625 C 3.554688 -1.28125 3.929688 -1.109375 4.390625 -1.109375 C 4.742188 -1.109375 5.046875 -1.203125 5.296875 -1.390625 C 5.554688 -1.578125 5.742188 -1.828125 5.859375 -2.140625 C 5.972656 -2.460938 6.054688 -2.773438 6.109375 -3.078125 C 6.160156 -3.378906 6.1875 -3.703125 6.1875 -4.046875 C 6.1875 -4.398438 6.160156 -4.726562 6.109375 -5.03125 C 6.054688 -5.34375 5.972656 -5.65625 5.859375 -5.96875 C 5.742188 -6.289062 5.554688 -6.539062 5.296875 -6.71875 C 5.046875 -6.90625 4.742188 -7 4.390625 -7 Z M 4.390625 -7 "></path></g></g></g><g fill="#000000" fill-opacity="1"><g transform="translate(17.677379, 32.869714)"><g><path d="M 3.03125 0 L 1.03125 0 L 1.03125 -11.703125 C 1.03125 -11.710938 1.015625 -11.78125 0.984375 -11.90625 C 0.960938 -12.039062 0.929688 -12.179688 0.890625 -12.328125 C 0.859375 -12.484375 0.84375 -12.566406 0.84375 -12.578125 L 3.03125 -12.578125 Z M 3.03125 0 "></path></g></g></g><g fill="#000000" fill-opacity="1"><g transform="translate(21.781938, 32.869714)"><g><path d="M 9.390625 -0.3125 C 9.316406 -0.289062 9.125 -0.234375 8.8125 -0.140625 C 8.507812 -0.046875 8.253906 0.0195312 8.046875 0.0625 C 7.847656 0.101562 7.65625 0.125 7.46875 0.125 C 7.144531 0.125 6.867188 0.0234375 6.640625 -0.171875 C 6.410156 -0.367188 6.265625 -0.632812 6.203125 -0.96875 C 5.421875 -0.164062 4.523438 0.234375 3.515625 0.234375 C 2.617188 0.234375 1.988281 -0.015625 1.625 -0.515625 C 1.257812 -1.015625 1.078125 -1.722656 1.078125 -2.640625 L 1.078125 -7.25 L 0.90625 -8.125 L 3.078125 -8.125 L 3.078125 -2.984375 C 3.078125 -1.890625 3.429688 -1.34375 4.140625 -1.34375 C 4.617188 -1.34375 5.023438 -1.488281 5.359375 -1.78125 C 5.703125 -2.070312 5.875 -2.453125 5.875 -2.921875 L 5.875 -7.25 C 5.875 -7.257812 5.859375 -7.328125 5.828125 -7.453125 C 5.796875 -7.585938 5.757812 -7.726562 5.71875 -7.875 C 5.6875 -8.019531 5.671875 -8.101562 5.671875 -8.125 L 7.875 -8.125 L 7.875 -2.15625 C 7.875 -1.59375 8.007812 -1.3125 8.28125 -1.3125 C 8.300781 -1.3125 8.554688 -1.375 9.046875 -1.5 Z M 9.390625 -0.3125 "></path></g></g></g><g fill="#000000" fill-opacity="1"><g transform="translate(30.825048, 32.869714)"><g><path d="M 5.34375 -0.1875 C 4.613281 0.0390625 3.972656 0.15625 3.421875 0.15625 C 2.710938 0.15625 2.191406 -0.00390625 1.859375 -0.328125 C 1.535156 -0.648438 1.375 -1.171875 1.375 -1.890625 L 1.375 -6.84375 L 0.03125 -6.84375 L 0.03125 -7.921875 C 0.445312 -7.929688 0.816406 -8.078125 1.140625 -8.359375 C 1.472656 -8.640625 1.71875 -8.957031 1.875 -9.3125 C 2.039062 -9.675781 2.175781 -10.070312 2.28125 -10.5 L 3.703125 -10.5 C 3.484375 -9.570312 3.375 -8.78125 3.375 -8.125 L 5.34375 -8.125 L 4.953125 -6.84375 L 3.375 -6.84375 L 3.375 -2.34375 C 3.375 -1.613281 3.601562 -1.25 4.0625 -1.25 C 4.3125 -1.25 4.664062 -1.300781 5.125 -1.40625 Z M 5.34375 -0.1875 "></path></g></g></g><g fill="#000000" fill-opacity="1"><g transform="translate(36.17242, 32.869714)"><g><path d="M 3.03125 0 L 1.0625 0 L 1.0625 -7.25 C 1.0625 -7.257812 1.046875 -7.328125 1.015625 -7.453125 C 0.992188 -7.585938 0.96875 -7.726562 0.9375 -7.875 C 0.90625 -8.03125 0.890625 -8.113281 0.890625 -8.125 L 3.03125 -8.125 Z M 2.921875 -11.984375 C 3.171875 -11.734375 3.296875 -11.429688 3.296875 -11.078125 C 3.296875 -10.734375 3.171875 -10.4375 2.921875 -10.1875 C 2.679688 -9.945312 2.390625 -9.828125 2.046875 -9.828125 C 1.691406 -9.828125 1.390625 -9.945312 1.140625 -10.1875 C 0.898438 -10.4375 0.78125 -10.734375 0.78125 -11.078125 C 0.78125 -11.429688 0.898438 -11.734375 1.140625 -11.984375 C 1.390625 -12.242188 1.691406 -12.375 2.046875 -12.375 C 2.390625 -12.375 2.679688 -12.242188 2.921875 -11.984375 Z M 2.921875 -11.984375 "></path></g></g></g><g fill="#000000" fill-opacity="1"><g transform="translate(40.276979, 32.869714)"><g><path d="M 0.421875 -4.078125 C 0.421875 -5.273438 0.78125 -6.285156 1.5 -7.109375 C 2.226562 -7.929688 3.191406 -8.34375 4.390625 -8.34375 C 5.585938 -8.34375 6.546875 -7.929688 7.265625 -7.109375 C 7.984375 -6.296875 8.34375 -5.28125 8.34375 -4.0625 C 8.34375 -2.851562 7.984375 -1.835938 7.265625 -1.015625 C 6.546875 -0.203125 5.585938 0.203125 4.390625 0.203125 C 3.179688 0.203125 2.21875 -0.203125 1.5 -1.015625 C 0.78125 -1.835938 0.421875 -2.859375 0.421875 -4.078125 Z M 4.390625 -7 C 3.929688 -7 3.554688 -6.820312 3.265625 -6.46875 C 2.972656 -6.125 2.785156 -5.75 2.703125 -5.34375 C 2.617188 -4.945312 2.578125 -4.519531 2.578125 -4.0625 C 2.578125 -3.601562 2.617188 -3.171875 2.703125 -2.765625 C 2.785156 -2.359375 2.972656 -1.976562 3.265625 -1.625 C 3.554688 -1.28125 3.929688 -1.109375 4.390625 -1.109375 C 4.742188 -1.109375 5.046875 -1.203125 5.296875 -1.390625 C 5.554688 -1.578125 5.742188 -1.828125 5.859375 -2.140625 C 5.972656 -2.460938 6.054688 -2.773438 6.109375 -3.078125 C 6.160156 -3.378906 6.1875 -3.703125 6.1875 -4.046875 C 6.1875 -4.398438 6.160156 -4.726562 6.109375 -5.03125 C 6.054688 -5.34375 5.972656 -5.65625 5.859375 -5.96875 C 5.742188 -6.289062 5.554688 -6.539062 5.296875 -6.71875 C 5.046875 -6.90625 4.742188 -7 4.390625 -7 Z M 4.390625 -7 "></path></g></g></g><g fill="#000000" fill-opacity="1"><g transform="translate(49.042091, 32.869714)"><g><path d="M 7.953125 0 L 5.96875 0 L 5.96875 -5.296875 C 5.96875 -5.609375 5.953125 -5.859375 5.921875 -6.046875 C 5.890625 -6.234375 5.789062 -6.40625 5.625 -6.5625 C 5.457031 -6.726562 5.226562 -6.8125 4.9375 -6.8125 C 4.695312 -6.8125 4.390625 -6.707031 4.015625 -6.5 C 3.640625 -6.300781 3.359375 -6.101562 3.171875 -5.90625 L 3.171875 0 L 1.203125 0 L 1.203125 -5.828125 C 1.203125 -6.910156 1.035156 -7.65625 0.703125 -8.0625 L 2.765625 -8.3125 C 2.898438 -8.03125 2.992188 -7.679688 3.046875 -7.265625 C 3.847656 -7.992188 4.675781 -8.359375 5.53125 -8.359375 C 6.414062 -8.359375 7.039062 -8.113281 7.40625 -7.625 C 7.769531 -7.132812 7.953125 -6.425781 7.953125 -5.5 Z M 7.953125 0 "></path></g></g></g><g fill="#000000" fill-opacity="1"><g transform="translate(57.987082, 32.869714)"><g><path d="M 6.421875 -2.53125 C 6.421875 -1.695312 6.101562 -1.023438 5.46875 -0.515625 C 4.84375 -0.015625 4.097656 0.234375 3.234375 0.234375 C 2.273438 0.234375 1.375 0 0.53125 -0.46875 L 1.234375 -1.8125 C 1.972656 -1.375 2.585938 -1.15625 3.078125 -1.15625 C 3.421875 -1.15625 3.707031 -1.242188 3.9375 -1.421875 C 4.175781 -1.609375 4.296875 -1.867188 4.296875 -2.203125 C 4.296875 -2.503906 4.171875 -2.75 3.921875 -2.9375 C 3.679688 -3.132812 3.382812 -3.289062 3.03125 -3.40625 C 2.6875 -3.53125 2.335938 -3.671875 1.984375 -3.828125 C 1.628906 -3.992188 1.328125 -4.238281 1.078125 -4.5625 C 0.835938 -4.894531 0.71875 -5.304688 0.71875 -5.796875 C 0.71875 -6.609375 1.03125 -7.234375 1.65625 -7.671875 C 2.28125 -8.117188 3.015625 -8.34375 3.859375 -8.34375 C 4.785156 -8.34375 5.585938 -8.175781 6.265625 -7.84375 L 5.578125 -6.46875 C 5.097656 -6.832031 4.554688 -7.015625 3.953125 -7.015625 C 3.648438 -7.015625 3.390625 -6.941406 3.171875 -6.796875 C 2.953125 -6.648438 2.84375 -6.4375 2.84375 -6.15625 C 2.84375 -5.875 2.960938 -5.644531 3.203125 -5.46875 C 3.453125 -5.300781 3.753906 -5.15625 4.109375 -5.03125 C 4.460938 -4.90625 4.8125 -4.757812 5.15625 -4.59375 C 5.507812 -4.4375 5.804688 -4.1875 6.046875 -3.84375 C 6.296875 -3.5 6.421875 -3.0625 6.421875 -2.53125 Z M 6.421875 -2.53125 "></path></g></g></g></g></g></svg>