{
  "accessors": [
    {
      "bufferView": 2,
      "componentType": 5126,
      "count": 8803,
      "max": [
        0.2220442146062851,
        0.07769642770290375,
        0.06876809895038605
      ],
      "min": [
        -0.25840869545936584,
        -0.07769642770290375,
        -0.23093552887439728
      ],
      "type": "VEC3"
    },
    {
      "bufferView": 2,
      "byteOffset": 105636,
      "componentType": 5126,
      "count": 8803,
      "max": [
        1.0,
        1.0,
        1.0
      ],
      "min": [
        -1.0,
        -1.0,
        -1.0
      ],
      "type": "VEC3"
    },
    {
      "bufferView": 1,
      "componentType": 5126,
      "count": 8803,
      "max": [
        1.0044130086898804,
        1.0161137580871582
      ],
      "min": [
        -0.004548231139779091,
        -0.002803441137075424
      ],
      "type": "VEC2"
    },
    {
      "bufferView": 0,
      "componentType": 5125,
      "count": 28878,
      "type": "SCALAR"
    }
  ],
  "asset": {
    "extras": {
      "author": "Bayomy (https://sketchfab.com/Bayomy)",
      "license": "CC-BY-4.0 (http://creativecommons.org/licenses/by/4.0/)",
      "source": "https://sketchfab.com/3d-models/casted-hard-surface-industrial-part-5-1689682a8ab74a4b93d1cf08d67c9ca6",
      "title": "Casted Hard Surface Industrial Part 5"
    },
    "generator": "Sketchfab-15.68.0",
    "version": "2.0"
  },
  "bufferViews": [
    {
      "buffer": 0,
      "byteLength": 115512,
      "name": "floatBufferViews",
      "target": 34963
    },
    {
      "buffer": 0,
      "byteLength": 70424,
      "byteOffset": 115512,
      "byteStride": 8,
      "name": "floatBufferViews",
      "target": 34962
    },
    {
      "buffer": 0,
      "byteLength": 211272,
      "byteOffset": 185936,
      "byteStride": 12,
      "name": "floatBufferViews",
      "target": 34962
    }
  ],
  "buffers": [
    {
      "byteLength": 397208,
      "uri": "scene.bin"
    }
  ],
  "materials": [
    {
      "doubleSided": true,
      "name": "Steel_Scratched.No_Rust",
      "pbrMetallicRoughness": {
        "baseColorFactor": [
          0.232308,
          0.232308,
          0.232308,
          1.0
        ],
        "metallicFactor": 0.0,
        "roughnessFactor": 0.9480543520282979
      }
    }
  ],
  "meshes": [
    {
      "name": "138_Steel Scratched.No Rust_0",
      "primitives": [
        {
          "attributes": {
            "NORMAL": 1,
            "POSITION": 0,
            "TEXCOORD_0": 2
          },
          "indices": 3,
          "material": 0,
          "mode": 4
        }
      ]
    }
  ],
  "nodes": [
    {
      "children": [
        1
      ],
      "matrix": [
        1.0,
        0.0,
        0.0,
        0.0,
        0.0,
        2.220446049250313e-16,
        -1.0,
        0.0,
        0.0,
        1.0,
        2.220446049250313e-16,
        0.0,
        0.0,
        0.0,
        0.0,
        1.0
      ],
      "name": "Sketchfab_model"
    },
    {
      "children": [
        2
      ],
      "matrix": [
        0.009999999776482582,
        0.0,
        0.0,
        0.0,
        0.0,
        0.0,
        0.009999999776482582,
        0.0,
        0.0,
        -0.009999999776482582,
        0.0,
        0.0,
        0.0,
        0.0,
        0.0,
        1.0
      ],
      "name": "138.fbx"
    },
    {
      "children": [
        3,
        6,
        9,
        12,
        15,
        17
      ],
      "name": "RootNode"
    },
    {
      "children": [
        4
      ],
      "matrix": [
        81.74589739921848,
        48.20965093262705,
        31.518848572730224,
        0.0,
        -57.5986827835186,
        68.42068867046518,
        44.73255082669529,
        0.0,
        -6.647653338909265e-06,
        -54.72146670926805,
        83.69922987212263,
        0.0,
        -75.86785888671875,
        7.843875885009766,
        156.3019561767578,
        1.0
      ],
      "name": "Area.001"
    },
    {
      "children": [
        5
      ],
      "matrix": [
        1.0,
        0.0,
        0.0,
        0.0,
        0.0,
        2.220446049250313e-16,
        1.0,
        0.0,
        0.0,
        -1.0,
        2.220446049250313e-16,
        0.0,
        0.0,
        0.0,
        0.0,
        1.0
      ],
      "name": "Object_4"
    },
    {
      "name": "Object_5"
    },
    {
      "children": [
        7
      ],
      "matrix": [
        78.08993139582097,
        -47.68427445568755,
        40.35062061766386,
        0.0,
        62.465691500181244,
        59.61129717398682,
        -50.44334083542462,
        0.0,
        1.2720638190022449e-05,
        64.59646444558166,
        76.33673284291478,
        0.0,
        212.2113037109375,
        7.843875885009766,
        -11.254404067993164,
        1.0
      ],
      "name": "Area"
    },
    {
      "children": [
        8
      ],
      "matrix": [
        1.0,
        0.0,
        0.0,
        0.0,
        0.0,
        2.220446049250313e-16,
        1.0,
        0.0,
        0.0,
        -1.0,
        2.220446049250313e-16,
        0.0,
        0.0,
        0.0,
        0.0,
        1.0
      ],
      "name": "Object_7"
    },
    {
      "name": "Object_8"
    },
    {
      "children": [
        10
      ],
      "matrix": [
        -1.981362120118033,
        48.209653043096864,
        87.58941193712938,
        0.0,
        -61.591580362695055,
        68.42069766016812,
        -39.05236082492972,
        0.0,
        -78.75628837403146,
        -54.72146755194939,
        28.337423248882587,
        0.0,
        -229.3724822998047,
        158.56410217285156,
        -110.55967712402344,
        1.0
      ],
      "name": "Area.002"
    },
    {
      "children": [
        11
      ],
      "matrix": [
        1.0,
        0.0,
        0.0,
        0.0,
        0.0,
        2.220446049250313e-16,
        1.0,
        0.0,
        0.0,
        -1.0,
        2.220446049250313e-16,
        0.0,
        0.0,
        0.0,
        0.0,
        1.0
      ],
      "name": "Object_10"
    },
    {
      "name": "Object_11"
    },
    {
      "children": [
        13
      ],
      "matrix": [
        -83.15177692177785,
        48.20965326354854,
        -27.597334161804064,
        0.0,
        55.407158858536626,
        68.42069952877293,
        -47.41999735446242,
        0.0,
        -3.9787266102653347,
        -54.72146084641493,
        -83.60461385231703,
        0.0,
        164.3216552734375,
        158.56410217285156,
        -110.55967712402344,
        1.0
      ],
      "name": "Area.003"
    },
    {
      "children": [
        14
      ],
      "matrix": [
        1.0,
        0.0,
        0.0,
        0.0,
        0.0,
        2.220446049250313e-16,
        1.0,
        0.0,
        0.0,
        -1.0,
        2.220446049250313e-16,
        0.0,
        0.0,
        0.0,
        0.0,
        1.0
      ],
      "name": "Object_13"
    },
    {
      "name": "Object_14"
    },
    {
      "children": [
        16
      ],
      "matrix": [
        -3.440884907911169,
        -6.911449152261153,
        14.670381254943987,
        0.0,
        -1.5782203875954757,
        15.068504483289022,
        6.728845427283561,
        0.0,
        -16.139932977897608,
        5.3015076821103876e-06,
        -3.7855604562784695,
        0.0,
        93.46281433105469,
        99.78570556640625,
        -140.00469970703125,
        1.0
      ],
      "name": "Camera"
    },
    {
      "name": "Object_16"
    },
    {
      "children": [
        18
      ],
      "matrix": [
        100.0,
        0.0,
        0.0,
        0.0,
        0.0,
        3.139164788112936e-05,
        99.99999999999507,
        0.0,
        0.0,
        -99.99999999999507,
        3.139164788112936e-05,
        0.0,
        53.01780700683594,
        7.711989402770996,
        37.46791076660156,
        1.0
      ],
      "name": "138"
    },
    {
      "mesh": 0,
      "name": "138_Steel Scratched.No Rust_0"
    }
  ],
  "scene": 0,
  "scenes": [
    {
      "name": "Sketchfab_Scene",
      "nodes": [
        0
      ]
    }
  ]
}
